<svg width="250" height="140" viewBox="0 0 250 140" fill="none" xmlns="http://www.w3.org/2000/svg">
<g opacity="0.33">
<path d="M62.3254 94.6824C76.1564 94.6824 87.4227 83.5077 87.4227 69.7683C87.4227 55.983 76.2022 44.8541 62.3254 44.8541C48.4944 44.8541 37.2281 56.0288 37.2281 69.7683C37.2739 83.5077 48.4944 94.6824 62.3254 94.6824Z" fill="black"/>
<path d="M62.3254 46.5944C49.4561 46.5944 39.0142 56.9906 39.0142 69.7682C39.0142 82.5459 49.4561 92.9421 62.3254 92.9421C75.1946 92.9421 85.6366 82.5459 85.6366 69.7682C85.6366 56.9906 75.2404 46.5944 62.3254 46.5944ZM35.4877 69.7682C35.4877 55.0213 47.5326 43.068 62.3254 43.068C77.1181 43.068 89.163 55.0213 89.163 69.7682C89.163 84.5152 77.1181 96.4685 62.3254 96.4685C47.5326 96.4685 35.4877 84.5152 35.4877 69.7682Z" fill="black"/>
<path d="M73.1795 68.257C73.4543 68.3486 73.6833 68.5318 73.8207 68.7607C74.0039 68.9897 74.0497 69.2645 74.0497 69.5393C74.0497 69.8141 73.9581 70.0889 73.8207 70.3179C73.6375 70.5469 73.4085 70.7301 73.1795 70.8217L58.5242 79.3859C57.2876 80.1187 56.3259 79.5233 56.3259 78.1035V61.3415C56.3259 59.8759 57.3334 59.3264 58.57 60.0591L73.1795 68.257Z" fill="white"/>
<path d="M58.1578 61.9368V77.5082L71.714 69.5393L58.1578 61.9368ZM59.4859 58.4562C58.57 57.9066 57.2876 57.6318 56.0969 58.3188C54.9061 59.0057 54.4939 60.2881 54.4939 61.3872V78.1493C54.4939 79.2485 54.9061 80.485 56.0511 81.172C57.2418 81.859 58.5242 81.5384 59.4401 80.9888L73.9581 72.4704C74.5077 72.2414 74.9656 71.875 75.2862 71.3712C75.6526 70.8216 75.8816 70.1805 75.8816 69.5393C75.8816 68.8981 75.6526 68.2111 75.2862 67.7074C74.9199 67.2036 74.4619 66.8372 73.9123 66.6082L59.4859 58.4562Z" fill="white"/>
<path d="M115.772 56.3036C116.504 56.3036 117.191 56.441 117.833 56.7616C118.474 57.0822 119.023 57.586 119.39 58.1813C119.802 58.7767 120.123 59.4179 120.214 60.1506C120.306 60.8834 120.214 61.5704 119.985 62.2574L113.665 79.8438C113.115 81.3551 112.108 82.6833 110.826 83.645C109.497 84.561 107.94 85.0648 106.292 85.0648H106.154C104.505 85.0648 102.948 84.561 101.62 83.5992C100.292 82.6375 99.3302 81.3093 98.8264 79.798L92.7353 62.2574C92.5063 61.5704 92.4147 60.8834 92.5521 60.1506C92.6437 59.4637 92.9185 58.7767 93.3307 58.1813C93.7429 57.586 94.2924 57.128 94.9336 56.8074C95.5748 56.4868 96.2617 56.3036 96.9945 56.3036H97.5899C98.5516 56.3036 99.4218 56.6242 100.2 57.1738C100.979 57.7233 101.529 58.5477 101.803 59.4637C104.322 68.0279 105.879 73.6153 106.429 76.3174H106.749C107.345 73.7069 108.948 68.0737 111.558 59.4179C111.833 58.5019 112.428 57.7234 113.161 57.128C113.94 56.5784 114.856 56.2578 115.817 56.2578L115.772 56.3036Z" fill="black"/>
<path d="M137.068 55.2045C141.006 55.2045 144.808 56.7158 147.556 59.6469C148.975 61.0666 150.074 62.7611 150.807 64.5931C151.54 66.425 151.906 68.4401 151.906 70.4094C151.952 72.4245 151.586 74.3938 150.853 76.2716C150.12 78.1035 148.975 79.798 147.601 81.2178C146.273 82.6375 144.624 83.7824 142.838 84.561C141.052 85.3396 139.083 85.706 137.114 85.706H135.419C133.45 85.7518 131.526 85.3396 129.694 84.561C127.908 83.7824 126.259 82.6375 124.931 81.2178C123.512 79.798 122.412 78.1035 121.68 76.2716C120.947 74.4396 120.58 72.4245 120.626 70.4552C120.58 68.4401 120.947 66.4708 121.68 64.6389C122.412 62.8069 123.512 61.1124 124.931 59.6927C127.679 56.8074 131.618 55.2503 135.465 55.2503L137.068 55.2045ZM136.289 78.5157C137.251 78.5157 138.167 78.3325 139.037 77.9203C139.907 77.5081 140.64 76.9127 141.235 76.18C142.609 74.6228 143.342 72.5619 143.296 70.501C143.342 68.3943 142.609 66.3792 141.235 64.7763C140.686 64.0893 140.045 63.5397 139.266 63.1733C138.488 62.7611 137.663 62.5322 136.839 62.4406C135.969 62.349 135.144 62.4864 134.32 62.7611C133.496 63.0359 132.763 63.4481 132.122 64.0435C131.847 64.2725 131.618 64.5473 131.389 64.8221C130.015 66.3792 129.282 68.3943 129.328 70.501C129.282 72.6077 130.015 74.6228 131.343 76.2258C131.938 76.9585 132.671 77.5539 133.541 77.9661C134.411 78.2867 135.327 78.5157 136.289 78.5157Z" fill="black"/>
<path d="M174.805 57.6776V48.06C174.805 47.4646 174.897 46.8693 175.126 46.3197C175.355 45.7701 175.676 45.2663 176.088 44.8541C176.5 44.442 177.004 44.0756 177.553 43.8466C178.103 43.6176 178.698 43.526 179.294 43.526H179.431C180.026 43.526 180.622 43.6176 181.171 43.8466C181.721 44.0756 182.225 44.3962 182.637 44.8083C183.049 45.2205 183.415 45.7243 183.599 46.2739C183.828 46.8235 183.919 47.4188 183.919 48.0142V83.2787C183.965 83.7367 183.828 84.2404 183.507 84.6068C183.186 84.9732 182.774 85.2022 182.27 85.248H176.683C176.179 85.248 175.721 85.0648 175.355 84.7442C174.989 84.4236 174.805 83.9199 174.805 83.4619C172.149 85.019 169.081 85.6144 166.058 85.2022C163.035 84.7442 160.242 83.2787 158.135 81.0346C156.807 79.6606 155.753 78.0119 155.021 76.2258C154.334 74.4397 153.967 72.5162 154.013 70.5926C153.967 68.6691 154.334 66.7456 155.021 64.9595C155.708 63.1734 156.761 61.5246 158.135 60.1507C160.196 57.9066 162.989 56.441 166.058 55.9831C169.081 55.5251 172.195 56.1663 174.805 57.7234V57.6776ZM162.806 70.3178C162.76 72.333 163.402 74.3023 164.592 75.951C165.05 76.638 165.692 77.2333 166.47 77.6455C167.203 78.0577 168.027 78.2409 168.897 78.2867C169.905 78.4241 170.913 78.3783 171.874 78.0119C172.836 77.6913 173.66 77.0502 174.21 76.2258C174.76 75.4014 175.034 74.3939 174.943 73.3863V66.0586C174.622 65.3717 174.21 64.7763 173.66 64.3183C173.111 63.8145 172.47 63.4939 171.737 63.265C170.821 62.8986 169.813 62.7154 168.806 62.7612C167.798 62.807 166.836 63.0818 165.921 63.5397C164.913 64.0893 164.089 64.9595 163.676 66.0586C163.127 67.2952 162.852 68.6233 162.898 69.9515L162.806 70.3178Z" fill="black"/>
<path d="M209.566 56.5785C210.207 56.5785 210.894 56.7159 211.49 57.0365C212.085 57.3571 212.589 57.7693 212.955 58.3188C213.321 58.8684 213.596 59.4638 213.688 60.1508C213.779 60.7919 213.734 61.4789 213.505 62.0743C207.643 78.8822 204.62 87.538 204.482 88.0418C203.612 91.0644 201.735 93.7207 199.17 95.5068C197.796 96.4686 196.239 97.1098 194.636 97.4304C192.987 97.7509 191.338 97.7052 189.69 97.3388C189.186 97.2472 188.682 97.064 188.224 96.835C187.583 96.606 187.033 96.148 186.667 95.5984C186.301 95.0031 186.117 94.3619 186.163 93.6749C186.117 93.2169 186.209 92.759 186.392 92.3468C186.575 91.9346 186.804 91.5224 187.125 91.2018C187.446 90.8812 187.812 90.6065 188.224 90.4233C188.636 90.2401 189.094 90.1485 189.507 90.1485C190.331 90.1485 191.155 89.9195 191.888 89.5531C193.72 88.6829 194.636 86.5762 194.636 83.2788V83.1414C193.949 79.5691 191.293 72.6536 186.667 62.3949C186.346 61.7537 186.255 61.0667 186.301 60.3797C186.346 59.6928 186.575 59.0516 186.988 58.4562C187.354 57.8609 187.858 57.3571 188.499 57.0365C189.14 56.7159 189.827 56.5327 190.514 56.5785H191.247C192.117 56.5785 192.941 56.8533 193.674 57.3571C194.361 57.8609 194.911 58.5478 195.14 59.3722L200.681 76.5923C201.277 73.9818 202.88 68.257 205.582 59.4638C205.811 58.5936 206.36 57.8609 207.047 57.3571C207.734 56.8075 208.604 56.5327 209.474 56.5327H209.566V56.5785Z" fill="black"/>
</g>
</svg>
