<svg width="250" height="140" viewBox="0 0 250 140" fill="none" xmlns="http://www.w3.org/2000/svg">
<g opacity="0.33" clip-path="url(#clip0)">
<path fill-rule="evenodd" clip-rule="evenodd" d="M154.815 28H95.5738C90.7721 28 89 29.772 89 34.5759V92.5427C89 93.0863 89.0219 93.5913 89.0699 94.0592C89.1793 95.1078 89.1998 96.1238 90.1751 97.2807C90.2704 97.3941 91.266 98.135 91.266 98.135C91.8016 98.3976 92.1673 98.591 92.7713 98.8341L121.942 111.056C123.457 111.75 124.09 112.021 125.19 111.999V111.999C125.191 111.999 125.193 111.999 125.194 111.999C125.196 111.999 125.197 111.999 125.198 111.999V111.999C126.298 112.021 126.932 111.75 128.446 111.056L157.617 98.8341C158.221 98.591 158.587 98.3976 159.122 98.135C159.122 98.135 160.118 97.3941 160.213 97.2807C161.188 96.1238 161.209 95.1078 161.318 94.0592C161.366 93.5913 161.388 93.0863 161.388 92.5427V34.5759C161.388 29.772 159.616 28 154.815 28Z" fill="black"/>
<path d="M150.847 86.2779L150.833 86.4117L150.82 86.5586L150.793 86.6924L150.753 86.826L150.727 86.9464L150.687 87.0802L150.634 87.2005L150.58 87.3076L150.527 87.4278L150.461 87.5347L150.394 87.6418L150.314 87.7487L150.247 87.8557L150.168 87.9492L150.074 88.0429L149.995 88.1231L149.888 88.2167L149.795 88.297L149.688 88.3772L149.582 88.4431L149.476 88.5234L149.355 88.5902L149.236 88.6437L149.116 88.7105L148.983 88.7641L148.85 88.8176L148.717 88.8576L148.584 88.8979L148.464 88.9378L148.331 88.9647L148.211 88.9914L148.092 89.0181L147.958 89.0449L147.825 89.0582L147.705 89.0716L147.572 89.085L147.425 89.0985L147.292 89.1117H147.16H147.013H146.866H146.733L146.6 89.0985H146.454L146.321 89.085L146.187 89.0716L146.041 89.0582L145.908 89.0315L145.775 89.0181L145.642 88.9914L145.509 88.9647L145.376 88.9378L145.243 88.9111L145.109 88.8712L144.99 88.8443L144.857 88.8042L144.724 88.7641L144.603 88.7105L144.471 88.6704L144.351 88.6305L144.218 88.5769L144.098 88.5234L143.978 88.4698L143.858 88.4039L143.738 88.3504L143.619 88.2834L143.512 88.2167L143.392 88.1498L143.286 88.083L143.179 88.0162L143.073 87.9359L142.967 87.8557L142.86 87.7754L142.753 87.6952L142.66 87.615L142.554 87.5215L142.634 87.4145L142.727 87.3209L142.807 87.2138L142.9 87.1069L142.98 87.0133L143.059 86.9064L143.153 86.7993L143.232 86.7058L143.326 86.5989L143.406 86.5052L143.499 86.3983L143.579 86.2912L143.659 86.1977L143.752 86.0908L143.832 85.9837L143.925 85.8902L144.005 85.7832L144.111 85.8635L144.231 85.9437L144.338 86.024L144.457 86.1042L144.564 86.171L144.684 86.2511L144.79 86.3181L144.91 86.3715L145.016 86.4384L145.136 86.492L145.256 86.5453L145.376 86.5989L145.495 86.639L145.616 86.6924L145.749 86.7325L145.882 86.7726L146.001 86.8128L146.135 86.8396L146.268 86.8663L146.401 86.893L146.547 86.9064L146.68 86.9331H146.814L146.96 86.9464H147.093H147.252L147.399 86.9331L147.532 86.9064L147.652 86.8796L147.771 86.8529L147.878 86.8128L147.971 86.7594L148.078 86.6791L148.158 86.5855L148.211 86.4784L148.251 86.3582L148.264 86.2244V86.1977L148.251 86.0372L148.198 85.9035L148.131 85.8099L148.038 85.7297L147.931 85.6495L147.825 85.5961L147.705 85.5425L147.572 85.489L147.412 85.4223L147.319 85.3955L147.213 85.3688L147.093 85.3285L146.973 85.3018L146.84 85.2617L146.706 85.235L146.56 85.1949L146.427 85.1682L146.281 85.1281L146.148 85.1014L146.014 85.0613L145.882 85.0344L145.749 84.9943L145.628 84.9543L145.495 84.9275L145.376 84.8874L145.256 84.8472L145.136 84.8071L144.99 84.7536L144.857 84.7L144.724 84.6467L144.59 84.5931L144.471 84.5263L144.338 84.4595L144.231 84.3927L144.111 84.3259L144.005 84.2456L143.898 84.1788L143.805 84.0984L143.712 84.0049L143.619 83.9113L143.538 83.8176L143.459 83.7241L143.392 83.6306L143.326 83.5235L143.259 83.4033L143.206 83.3105L143.166 83.2034L143.126 83.0831L143.086 82.9761L143.059 82.8424L143.033 82.722L143.019 82.5884L143.006 82.4546L142.993 82.3077V82.1605V82.1338V82L143.006 81.8664L143.019 81.7461L143.033 81.6123L143.059 81.4921L143.086 81.3717L143.126 81.2512L143.153 81.131L143.206 81.0106L143.259 80.8903L143.313 80.7701L143.379 80.6496L143.445 80.5294L143.525 80.4223L143.605 80.3154L143.698 80.2084L143.792 80.1149L143.885 80.0078L143.991 79.9142L144.084 79.8474L144.191 79.7671L144.298 79.6869L144.404 79.6201L144.524 79.5533L144.644 79.4997L144.763 79.4329L144.883 79.3795L145.016 79.3392L145.149 79.2859L145.269 79.2457L145.376 79.2189L145.495 79.1922L145.616 79.1655L145.749 79.1388L145.868 79.112L146.001 79.0987L146.135 79.0853L146.268 79.0718L146.401 79.0586H146.533H146.68H146.827H146.973L147.119 79.0718L147.266 79.0853H147.399L147.546 79.0987L147.679 79.1254L147.825 79.1388L147.958 79.1655L148.078 79.1922L148.211 79.2189L148.344 79.2457L148.464 79.2724L148.597 79.3125L148.717 79.3527L148.836 79.3795L148.97 79.4329L149.09 79.473L149.209 79.5264L149.329 79.58L149.462 79.6335L149.582 79.7003L149.688 79.7539L149.809 79.8207L149.928 79.8875L150.034 79.9544L150.155 80.0347L150.261 80.1013L150.368 80.1817L150.474 80.262L150.58 80.3421L150.501 80.4491L150.434 80.5561L150.354 80.663L150.274 80.7701L150.195 80.8903L150.128 80.9972L150.048 81.1043L149.968 81.2112L149.901 81.3182L149.822 81.4253L149.742 81.5322L149.675 81.6391L149.595 81.7595L149.515 81.8664L149.436 81.9733L149.369 82.0803L149.289 82.1872L149.182 82.1071L149.063 82.0402L148.957 81.9733L148.85 81.8931L148.73 81.8397L148.623 81.7727L148.504 81.7192L148.398 81.6658L148.277 81.6123L148.171 81.5589L148.052 81.5188L147.945 81.4652L147.798 81.4253L147.665 81.385L147.532 81.345L147.399 81.3182L147.266 81.2915L147.133 81.2646L147 81.2512L146.866 81.2379L146.747 81.2245H146.614H146.454L146.308 81.2512L146.174 81.2781L146.055 81.3047L145.948 81.3583L145.855 81.4117L145.735 81.5188L145.655 81.6391L145.602 81.7595L145.589 81.8931V81.9199L145.602 82.0937L145.668 82.2407L145.722 82.321L145.815 82.4146L145.935 82.4815L146.041 82.5483L146.174 82.6018L146.321 82.6554L146.481 82.7087L146.587 82.7354L146.693 82.7756L146.814 82.8023L146.933 82.8424L147.066 82.8692L147.213 82.9093L147.359 82.9493L147.506 82.9896L147.652 83.0163L147.785 83.0564L147.931 83.0965L148.065 83.1232L148.198 83.1633L148.331 83.2034L148.45 83.2436L148.584 83.2837L148.704 83.3238L148.823 83.3639L148.97 83.4166L149.103 83.4835L149.236 83.5369L149.369 83.6037L149.489 83.6707L149.609 83.7375L149.715 83.8043L149.822 83.8846L149.928 83.9514L150.034 84.045L150.141 84.1385L150.234 84.2456L150.328 84.3391L150.407 84.4462L150.487 84.5664L150.553 84.6734L150.62 84.7939L150.674 84.9008L150.714 85.021L150.753 85.1414L150.78 85.2617L150.807 85.3955L150.833 85.5293L150.847 85.6629L150.86 85.8099V85.957V85.9837V86.1309L150.847 86.2779ZM141.511 88.9514H141.378H141.245H141.112H140.979H140.845H140.712H140.58H140.447H140.3H140.167H140.034H139.901H139.767H139.634H139.501H139.368H139.235H139.102H138.969H138.836H138.703H138.569H138.436H138.303H138.17H138.037H137.904H137.771H137.625H137.491H137.358H137.225H137.092H136.959H136.826H136.693H136.56H136.426H136.293H136.16H136.027H135.893H135.761H135.628H135.495H135.361H135.228H135.082H134.949H134.816H134.682H134.549H134.416H134.284H134.15H134.017H133.884V88.8176V88.6839V88.5502V88.4172V88.2834V88.1498V88.0162V87.8825V87.7487V87.615V87.4813V87.3476V87.2138V87.0802V86.9464V86.8128V86.6791V86.5453V86.425V86.2912V86.1576V86.024V85.8902V85.7564V85.6228V85.489V85.3552V85.2216V85.088V84.9543V84.8206V84.6868V84.5531V84.4194V84.2856V84.152V84.0182V83.8846V83.7509V83.6171V83.4835V83.3505V83.2169V83.0831V82.9493V82.8157V82.682V82.5483V82.4146V82.2809V82.1471V82.0135V81.8797V81.7461V81.6257V81.4921V81.3583V81.2245V81.0909V80.9571V80.8235V80.6897V80.5561V80.4223V80.2887V80.1549V80.0211V79.8875V79.7539V79.6201V79.4864V79.3527V79.2189H134.017H134.15H134.284H134.416H134.549H134.682H134.816H134.949H135.082H135.215H135.348H135.481H135.614H135.747H135.867H136H136.133H136.266H136.4H136.533H136.666H136.799H136.932H137.065H137.198H137.331H137.465H137.598H137.731H137.864H137.997H138.13H138.263H138.396H138.529H138.663H138.796H138.929H139.062H139.195H139.328H139.461H139.594H139.714H139.847H139.98H140.113H140.247H140.38H140.513H140.646H140.779H140.912H141.045H141.178H141.312H141.445H141.578V79.3527V79.473V79.6067V79.7404V79.8741V79.9944V80.1282V80.262V80.3822V80.516V80.6496V80.7701V80.9037V81.0373V81.1711V81.2915V81.4253H141.445H141.312H141.178H141.045H140.912H140.779H140.659H140.526H140.393H140.26H140.127H139.994H139.861H139.728H139.594H139.461H139.328H139.195H139.062H138.942H138.809H138.676H138.542H138.41H138.277H138.144H138.01H137.877H137.744H137.611H137.478H137.345H137.225H137.092H136.959H136.826H136.693H136.56H136.426V81.5589V81.6925V81.8261V81.9599V82.0937V82.214V82.3477V82.4815V82.6151V82.7489V82.8825V83.0163H136.56H136.693H136.826H136.959H137.092H137.225H137.358H137.491H137.611H137.744H137.877H138.01H138.144H138.277H138.41H138.542H138.676H138.809H138.942H139.075H139.209H139.341H139.475H139.608H139.741H139.874H139.994H140.127H140.26H140.393H140.526H140.659H140.793H140.926H141.059V83.1499V83.2703V83.4033V83.5369V83.6573V83.7909V83.9247V84.045V84.1788V84.3124V84.4462V84.5664V84.7V84.8338V84.9543V85.088H140.926H140.793H140.659H140.526H140.393H140.26H140.127H139.994H139.874H139.741H139.608H139.475H139.341H139.209H139.075H138.942H138.809H138.676H138.542H138.41H138.277H138.144H138.01H137.877H137.744H137.611H137.491H137.358H137.225H137.092H136.959H136.826H136.693H136.56H136.426V85.2216V85.3688V85.5024V85.6362V85.7832V85.917V86.0507V86.1977V86.3313V86.4651V86.6122V86.7458H136.56H136.693H136.826H136.959H137.092H137.225H137.358H137.491H137.625H137.771H137.904H138.037H138.17H138.303H138.436H138.569H138.703H138.836H138.969H139.102H139.235H139.368H139.501H139.634H139.767H139.901H140.034H140.167H140.3H140.447H140.58H140.712H140.845H140.979H141.112H141.245H141.378H141.511H141.644V86.8796V86.9999V87.1337V87.2673V87.4011V87.5215V87.6551V87.7887V87.9092V88.0429V88.1765V88.297V88.4299V88.5635V88.6971V88.8176V88.9514H141.511ZM131.786 88.9514H131.653H131.52H131.373H131.24H131.107H130.974H130.84H130.707H130.561H130.428H130.295H130.161H130.029H129.896H129.749H129.616H129.483H129.35V88.8176V88.6839V88.5502V88.4164V88.2819V88.1483V88.0145V87.8807V87.7471V87.6135V87.4797V87.3453V87.2116V87.0778V86.9441V86.8104V86.6758V86.5421V86.4084V86.2748V86.141V86.0074V85.8729V85.7392V85.6055V85.4717V85.3381V85.2043V85.0698V84.936V84.8024V84.6687V84.5351V84.4013V84.2668V84.1332V83.9994V83.8658V83.732V83.5975V83.4638V83.3301V83.1963L129.283 83.3032L129.203 83.4245L129.137 83.5314L129.057 83.6385L128.99 83.7587L128.91 83.8658L128.844 83.9727L128.777 84.0938L128.698 84.2007L128.631 84.3077L128.551 84.4147L128.485 84.5358L128.404 84.6428L128.338 84.7497L128.271 84.8701L128.191 84.9777L128.125 85.0848L128.045 85.205L127.979 85.3121L127.899 85.419L127.833 85.5401L127.766 85.6472L127.686 85.7542L127.619 85.8745L127.539 85.9822L127.473 86.0891L127.393 86.1962L127.326 86.3164L127.26 86.4241L127.18 86.5312L127.114 86.6515L127.033 86.7585L126.967 86.8654L126.887 86.9866L126.82 87.0936H126.768L126.687 86.9732L126.621 86.8654L126.541 86.745L126.474 86.6381L126.395 86.5179L126.328 86.4101L126.249 86.2897L126.182 86.1826L126.101 86.0624L126.035 85.9555L125.955 85.8343L125.889 85.7273L125.809 85.607L125.742 85.5L125.663 85.3789L125.596 85.272L125.516 85.1516L125.436 85.0447L125.369 84.9236L125.29 84.8167L125.223 84.6963L125.143 84.5894L125.077 84.4681L124.997 84.3612L124.93 84.2408L124.85 84.1339L124.784 84.0136L124.704 83.9057L124.638 83.7855L124.557 83.6784L124.491 83.5581L124.411 83.4513L124.344 83.3301L124.265 83.2231V83.3568V83.4905V83.6243V83.7587V83.8925V84.0261V84.1599V84.2936V84.428V84.5618V84.6822V84.8158V84.9496V85.0832V85.2177V85.3515V85.4851V85.6187V85.7525V85.8863V86.0207V86.1545V86.2882V86.4219V86.5556V86.6893V86.8238V86.9574V87.0912V87.2248V87.3586V87.493V87.6135V87.7471V87.8807V88.0145V88.1483V88.2819V88.4164V88.5502V88.6839V88.8176V88.9514H124.132H123.998H123.865H123.732H123.6H123.466H123.333H123.2H123.067H122.933H122.8H122.667H122.535H122.401H122.268H122.135H122.002H121.868H121.735V88.8176V88.6839V88.5502V88.4172V88.2834V88.1498V88.0162V87.8825V87.7487V87.615V87.4813V87.3476V87.2138V87.0802V86.9464V86.8128V86.6791V86.5453V86.425V86.2912V86.1576V86.024V85.8902V85.7564V85.6228V85.489V85.3552V85.2216V85.088V84.9543V84.8206V84.6868V84.5531V84.4194V84.2856V84.152V84.0182V83.8846V83.7509V83.6171V83.4835V83.3505V83.2169V83.0831V82.9493V82.8157V82.682V82.5483V82.4146V82.2809V82.1471V82.0135V81.8797V81.7461V81.6257V81.4921V81.3583V81.2245V81.0909V80.9571V80.8235V80.6897V80.5561V80.4223V80.2887V80.1549V80.0211V79.8875V79.7539V79.6201V79.4864V79.3527V79.2189H121.868H122.002H122.122H122.254H122.388H122.521H122.641H122.774H122.907H123.04H123.16H123.293H123.427H123.559H123.679H123.812H123.946H124.079H124.198H124.331H124.465L124.531 79.326L124.598 79.4462L124.677 79.5524L124.744 79.6727L124.811 79.7797L124.877 79.9002L124.944 80.0062L125.023 80.1267L125.09 80.2336L125.157 80.3406L125.223 80.46L125.29 80.5671L125.369 80.6873L125.436 80.7944L125.503 80.9139L125.569 81.0208L125.649 81.1277L125.716 81.2475L125.782 81.3543L125.849 81.4746L125.915 81.5817L125.995 81.7012L126.062 81.8082L126.128 81.9284L126.195 82.0346L126.261 82.1416L126.341 82.2619L126.408 82.369L126.474 82.4894L126.541 82.5955L126.607 82.7159L126.687 82.8228L126.754 82.9423L126.82 83.0494L126.887 82.9423L126.954 82.8228L127.033 82.7159L127.1 82.5955L127.166 82.4894L127.233 82.369L127.313 82.2619L127.379 82.1416L127.446 82.0346L127.512 81.9284L127.593 81.8082L127.659 81.7012L127.726 81.5817L127.792 81.4746L127.872 81.3543L127.939 81.2475L128.006 81.1277L128.072 81.0208L128.139 80.9139L128.218 80.7944L128.285 80.6873L128.352 80.5671L128.418 80.46L128.498 80.3406L128.564 80.2336L128.631 80.1267L128.698 80.0062L128.777 79.9002L128.844 79.7797L128.91 79.6727L128.977 79.5524L129.057 79.4462L129.123 79.326L129.19 79.2189H129.323H129.456H129.576H129.709H129.842H129.975H130.095H130.228H130.361H130.494H130.614H130.747H130.88H131.013H131.133H131.267H131.399H131.532H131.653H131.786H131.918V79.3527V79.4864V79.6201V79.7539V79.8875V80.0211V80.1549V80.2887V80.4223V80.5561V80.6897V80.8235V80.9571V81.0909V81.2245V81.3583V81.4921V81.6257V81.7461V81.8797V82.0135V82.1471V82.2809V82.4146V82.5483V82.682V82.8157V82.9493V83.0831V83.2169V83.3505V83.4835V83.6171V83.7509V83.8846V84.0182V84.152V84.2856V84.4194V84.5531V84.6868V84.8206V84.9543V85.088V85.2216V85.3552V85.489V85.6228V85.7564V85.8902V86.024V86.1576V86.2912V86.425V86.5453V86.6791V86.8128V86.9464V87.0802V87.2138V87.3476V87.4813V87.615V87.7487V87.8825V88.0162V88.1498V88.2834V88.4172V88.5502V88.6839V88.8176V88.9514H131.786ZM116.341 84.9409L116.301 84.8198L116.248 84.686L116.195 84.5657L116.154 84.4446L116.102 84.3242L116.048 84.1904L116.008 84.0693L115.955 83.949L115.902 83.8288L115.862 83.7077L115.808 83.5739L115.769 83.4535L115.715 83.3324L115.662 83.2121L115.622 83.0917L115.569 82.9574L115.516 82.8369L115.476 82.7166L115.422 82.5955L115.369 82.4618L115.329 82.3407L115.276 82.2203L115.223 82.3407L115.183 82.4618L115.13 82.5955L115.076 82.7166L115.037 82.8369L114.983 82.9574L114.93 83.0917L114.877 83.2121L114.837 83.3324L114.784 83.4535L114.73 83.5739L114.691 83.7077L114.637 83.8288L114.584 83.949L114.544 84.0693L114.491 84.1904L114.437 84.3242L114.384 84.4446L114.345 84.5657L114.291 84.686L114.238 84.8198L114.198 84.9409L114.145 85.0613H114.278H114.411H114.544H114.677H114.81H114.943H115.076H115.21H115.329H115.462H115.596H115.729H115.862H115.995H116.128H116.261H116.394L116.341 84.9409ZM120.521 88.9514H120.388H120.268H120.135H120.001H119.868H119.735H119.616H119.482H119.349H119.216H119.083H118.95H118.83H118.697H118.564H118.431H118.298H118.178H118.045H117.912L117.859 88.8309L117.819 88.7105L117.765 88.5902L117.712 88.4566L117.672 88.337L117.619 88.2167L117.565 88.0964L117.526 87.976L117.473 87.8557L117.419 87.7353L117.379 87.615L117.326 87.4813L117.273 87.361L117.233 87.2406L117.179 87.1203H117.046H116.913H116.78H116.648H116.527H116.394H116.261H116.128H115.995H115.862H115.729H115.596H115.462H115.329H115.21H115.076H114.943H114.81H114.677H114.544H114.411H114.278H114.145H114.012H113.892H113.759H113.626H113.492H113.359L113.306 87.2406L113.266 87.361L113.213 87.4813L113.159 87.615L113.12 87.7353L113.067 87.8557L113.013 87.976L112.973 88.0964L112.92 88.2167L112.867 88.337L112.827 88.4566L112.774 88.5902L112.72 88.7105L112.68 88.8309L112.627 88.9514H112.494H112.361H112.228H112.094H111.962H111.815H111.682H111.549H111.416H111.283H111.15H111.017H110.883H110.75H110.617H110.471H110.337H110.204H110.071H109.939L109.991 88.8309L110.045 88.7105L110.098 88.5902L110.151 88.4566L110.191 88.337L110.245 88.2167L110.298 88.0964L110.351 87.976L110.404 87.8557L110.458 87.7219L110.51 87.6015L110.564 87.4813L110.604 87.361L110.657 87.2406L110.71 87.1203L110.764 86.9866L110.817 86.8663L110.87 86.7458L110.923 86.6256L110.977 86.5052L111.017 86.3849L111.07 86.2511L111.123 86.1309L111.177 86.0105L111.229 85.8902L111.283 85.7698L111.336 85.6495L111.389 85.5157L111.429 85.3955L111.483 85.2751L111.536 85.1548L111.589 85.0344L111.642 84.9141L111.696 84.7804L111.748 84.6601L111.802 84.5397L111.842 84.4194L111.895 84.2992L111.948 84.1788L112.002 84.045L112.055 83.9247L112.108 83.8043L112.161 83.684L112.215 83.5638L112.255 83.4433L112.308 83.3238L112.361 83.19L112.414 83.0698L112.467 82.9493L112.521 82.8289L112.574 82.7087L112.627 82.5884L112.667 82.4546L112.72 82.3344L112.774 82.214L112.827 82.0937L112.88 81.9733L112.934 81.853L112.986 81.7192L113.04 81.599L113.08 81.4786L113.133 81.3583L113.186 81.2379L113.239 81.1176L113.293 80.9839L113.346 80.8636L113.399 80.7432L113.453 80.6229L113.492 80.5027L113.546 80.3822L113.599 80.2485L113.653 80.1282L113.705 80.0078L113.759 79.8875L113.812 79.7671L113.865 79.6469L113.905 79.5131L113.958 79.3928L114.012 79.2724L114.065 79.1521H114.198H114.318H114.451H114.584H114.717H114.837H114.97H115.103H115.237H115.356H115.489H115.622H115.756H115.875H116.008H116.141H116.275H116.394H116.527L116.581 79.2724L116.634 79.3928L116.687 79.5131L116.74 79.6469L116.78 79.7671L116.833 79.8875L116.887 80.0078L116.94 80.1282L116.994 80.2485L117.046 80.3822L117.1 80.5027L117.153 80.6229L117.193 80.7432L117.246 80.8636L117.3 80.9839L117.353 81.1176L117.406 81.2379L117.459 81.3583L117.513 81.4786L117.565 81.599L117.606 81.7192L117.659 81.853L117.712 81.9733L117.765 82.0937L117.819 82.214L117.872 82.3344L117.925 82.4546L117.978 82.5884L118.018 82.7087L118.071 82.8289L118.125 82.9493L118.178 83.0698L118.232 83.19L118.284 83.3238L118.338 83.4433L118.391 83.5638L118.431 83.684L118.484 83.8043L118.537 83.9247L118.59 84.045L118.644 84.1788L118.697 84.2992L118.751 84.4194L118.803 84.5397L118.844 84.6601L118.897 84.7804L118.95 84.9141L119.003 85.0344L119.057 85.1548L119.11 85.2751L119.163 85.3955L119.216 85.5157L119.256 85.6495L119.309 85.7698L119.363 85.8902L119.416 86.0105L119.469 86.1309L119.522 86.2511L119.576 86.3849L119.629 86.5052L119.669 86.6256L119.722 86.7458L119.776 86.8663L119.828 86.9866L119.882 87.1203L119.935 87.2406L119.989 87.361L120.041 87.4813L120.082 87.6015L120.135 87.7219L120.188 87.8557L120.241 87.976L120.294 88.0964L120.347 88.2167L120.401 88.337L120.454 88.4566L120.494 88.5902L120.547 88.7105L120.601 88.8309L120.654 88.9514H120.521ZM108.86 87.7085L108.753 87.7887L108.66 87.8557L108.553 87.9359L108.447 88.0027L108.34 88.083L108.233 88.1498L108.127 88.2167L108.007 88.2834L107.887 88.3504L107.768 88.4172L107.648 88.4698L107.528 88.5368L107.395 88.5902L107.276 88.6437L107.142 88.6971L107.022 88.7507L106.903 88.7908L106.782 88.8309L106.663 88.8712L106.53 88.9111L106.41 88.9514L106.277 88.9781L106.157 89.0048L106.024 89.0315L105.891 89.0582L105.757 89.0716L105.611 89.085L105.478 89.0985L105.332 89.1117L105.198 89.1252L105.052 89.1384H104.906H104.759H104.613H104.479L104.346 89.1252L104.2 89.1117L104.067 89.0985L103.934 89.085L103.801 89.0716L103.668 89.0449L103.535 89.0181L103.415 88.9914L103.282 88.9647L103.162 88.9246L103.029 88.8979L102.909 88.8576L102.789 88.8042L102.67 88.7641L102.537 88.7105L102.416 88.6572L102.297 88.6038L102.177 88.5502L102.057 88.4834L101.951 88.4172L101.831 88.3504L101.724 88.2834L101.618 88.2167L101.511 88.1364L101.405 88.0563L101.299 87.976L101.205 87.8958L101.112 87.8156L101.019 87.7219L100.926 87.6418L100.832 87.5482L100.74 87.4545L100.659 87.361L100.58 87.2541L100.5 87.1604L100.433 87.0535L100.353 86.9464L100.287 86.8396L100.22 86.7325L100.154 86.6122L100.087 86.5052L100.034 86.3849L99.9806 86.2645L99.9272 86.1442L99.8744 86.024L99.8343 85.917L99.7807 85.7965L99.754 85.6762L99.7147 85.556L99.688 85.4223L99.6478 85.3018L99.6211 85.1682L99.6077 85.0478L99.5809 84.9141L99.5678 84.7939L99.5542 84.6601L99.5417 84.5263L99.5284 84.3927V84.2456V84.1118V84.0851V83.9514L99.5417 83.8043V83.6707L99.5542 83.5369L99.5678 83.3899L99.5944 83.257L99.6077 83.1232L99.6344 83.0028L99.6745 82.8692L99.7014 82.7354L99.7406 82.6151L99.7807 82.4815L99.8208 82.3611L99.8744 82.2273L99.9272 82.1071L99.9806 81.9868L100.034 81.8664L100.087 81.7461L100.154 81.6257L100.22 81.5188L100.287 81.4117L100.353 81.3047L100.42 81.1978L100.5 81.0909L100.58 80.9839L100.659 80.877L100.74 80.7832L100.832 80.6897L100.913 80.596L101.005 80.5027L101.099 80.4089L101.192 80.3288L101.299 80.2351L101.392 80.1549L101.498 80.0746L101.605 80.0078L101.711 79.9276L101.818 79.8608L101.924 79.794L102.044 79.727L102.164 79.6602L102.283 79.5934L102.403 79.5398L102.523 79.4864L102.656 79.4195L102.762 79.3795L102.895 79.3392L103.016 79.2859L103.135 79.259L103.255 79.2189L103.388 79.1922L103.508 79.1521L103.641 79.1254L103.774 79.112L103.908 79.0853L104.041 79.0718L104.173 79.0586L104.306 79.0451L104.44 79.0317H104.586H104.719H104.865H105.012L105.159 79.0451L105.305 79.0586H105.438L105.571 79.0718L105.717 79.0987L105.838 79.112L105.971 79.1388L106.104 79.1655L106.224 79.1922L106.343 79.2189L106.463 79.2457L106.583 79.2859L106.703 79.3125L106.809 79.3527L106.929 79.3928L107.049 79.4462L107.168 79.4997L107.289 79.5533L107.408 79.6201L107.528 79.6736L107.635 79.7404L107.754 79.8072L107.861 79.8741L107.981 79.941L108.087 80.0211L108.193 80.0881L108.3 80.1683L108.406 80.2485L108.513 80.3421L108.62 80.4223L108.539 80.5294L108.447 80.6229L108.366 80.7298L108.274 80.8367L108.193 80.9438L108.114 81.0373L108.02 81.1443L107.941 81.2512L107.861 81.345L107.768 81.4519L107.688 81.5589L107.595 81.6658L107.514 81.7595L107.435 81.8664L107.342 81.9733L107.262 82.0803L107.168 82.1739L107.089 82.2809L106.982 82.2006L106.876 82.1071L106.769 82.0402L106.663 81.9599L106.557 81.8931L106.45 81.8261L106.343 81.7595L106.224 81.6925L106.117 81.6391L106.011 81.5856L105.904 81.5455L105.784 81.5053L105.665 81.4652L105.544 81.4385L105.411 81.4117L105.279 81.385L105.146 81.3717L104.999 81.3583L104.852 81.345H104.706H104.573L104.44 81.3583L104.32 81.3717L104.187 81.3984L104.067 81.4253L103.947 81.4652L103.827 81.5053L103.708 81.5589L103.588 81.6123L103.481 81.6791L103.375 81.7461L103.268 81.813L103.175 81.8931L103.082 81.9733L102.989 82.0536L102.909 82.1471L102.816 82.2407L102.736 82.3477L102.67 82.4413L102.603 82.5483L102.537 82.6686L102.47 82.7756L102.416 82.8959L102.376 83.0163L102.324 83.1366L102.283 83.2703L102.257 83.4033L102.23 83.5235L102.203 83.6707L102.19 83.8043L102.177 83.9379V84.0851V84.1118V84.2456L102.19 84.3793L102.203 84.4996L102.217 84.6334L102.243 84.7536L102.27 84.8741L102.297 84.9943L102.337 85.1147L102.376 85.2216L102.43 85.3552L102.483 85.4757L102.549 85.5961L102.616 85.703L102.683 85.8099L102.762 85.917L102.843 86.0105L102.935 86.1042L103.016 86.1977L103.108 86.2779L103.216 86.3582L103.322 86.4384L103.428 86.5052L103.535 86.572L103.654 86.6256L103.774 86.6791L103.894 86.7325L104.027 86.7726L104.16 86.8128L104.294 86.8396L104.427 86.8663L104.56 86.8796L104.706 86.893H104.852H105.012L105.159 86.8796L105.305 86.8663L105.438 86.8529L105.571 86.826L105.705 86.7993L105.838 86.7594L105.957 86.7325L106.077 86.6791L106.184 86.6256L106.303 86.572L106.397 86.5187L106.503 86.4517V86.3181V86.1844V86.0507V85.917V85.7698V85.6362V85.5024V85.3688V85.235H106.37H106.25H106.117H105.984H105.851H105.731H105.598H105.465H105.332H105.212H105.079H104.946H104.813H104.693H104.56V85.1014V84.981V84.8472V84.7136V84.5798V84.4595V84.3259V84.1921V84.0585V83.9379V83.8043V83.6707V83.5369V83.4166V83.2837H104.693H104.826H104.959H105.092H105.225H105.358H105.492H105.625H105.757H105.891H106.024H106.157H106.29H106.423H106.557H106.69H106.822H106.955H107.089H107.222H107.355H107.488H107.621H107.754H107.887H108.02H108.154H108.287H108.42H108.553H108.686H108.819H108.952V83.4166V83.5502V83.684V83.8043V83.9379V84.0717V84.2054V84.3391V84.4729V84.5931V84.7269V84.8607V84.9943V85.1281V85.2617V85.3955V85.5157V85.6495V85.7832V85.917V86.0507V86.1844V86.3181V86.4384V86.572V86.7058V86.8396V86.9732V87.1069V87.2274V87.361V87.4946V87.6284L108.86 87.7085Z" fill="white"/>
<path d="M104.578 57.1981H110.348V52.7355H104.578V43.6252H110.577V39.1627H99.6794V71.3694H110.669V66.9067H104.578V57.1981Z" fill="white"/>
<path d="M145.901 58.1648V65.4345C145.901 66.7229 145.306 67.3206 144.07 67.3206H143.154C141.872 67.3206 141.276 66.7229 141.276 65.4345V45.0976C141.276 43.8093 141.872 43.2116 143.154 43.2116H143.978C145.214 43.2116 145.81 43.8093 145.81 45.0976V51.4015H150.617V44.8215C150.617 40.8191 148.694 38.8865 144.711 38.8865H142.33C138.347 38.8865 136.377 40.8647 136.377 44.8679V65.6641C136.377 69.6675 138.347 71.6455 142.33 71.6455H144.757C148.74 71.6455 150.709 69.6675 150.709 65.6641V58.1648H145.901Z" fill="white"/>
<path d="M128.888 71.3695H133.788V39.1626H128.888V71.3695Z" fill="white"/>
<path d="M121.779 53.4716C121.779 54.76 121.184 55.3585 119.948 55.3585H117.933V43.4877H119.948C121.184 43.4877 121.779 44.0856 121.779 45.3737V53.4716ZM120.726 39.1626H113.034V71.3695H117.933V59.6827H120.726C124.709 59.6827 126.678 57.7046 126.678 53.7022V45.144C126.678 41.1408 124.709 39.1626 120.726 39.1626Z" fill="white"/>
<path fill-rule="evenodd" clip-rule="evenodd" d="M111.237 100.491H139.283L124.968 105.212L111.237 100.491Z" fill="white"/>
</g>
<defs>
<clipPath id="clip0">
<rect width="72.3884" height="84" fill="white" transform="translate(89 28)"/>
</clipPath>
</defs>
</svg>
