<svg width="36" height="36" viewBox="0 0 36 36" fill="none" xmlns="http://www.w3.org/2000/svg">
<path fill-rule="evenodd" clip-rule="evenodd" d="M18 0C8.05887 0 0 8.05887 0 18C0 27.9411 8.05887 36 18 36C27.9411 36 36 27.9411 36 18C36 8.05887 27.9411 0 18 0ZM11.5556 13C11.4082 13 11.2729 13.0596 11.1727 13.1557L17.7779 17.7793L24.3831 13.1557C24.2829 13.0596 24.1475 13 24.0001 13H11.5556ZM9.00009 13.5678C8.99995 13.5577 8.99997 13.5475 9.00015 13.5373C9.00999 12.1378 10.1539 11 11.5556 11H24.0001C25.4018 11 26.5457 12.1378 26.5556 13.5373C26.5558 13.5475 26.5558 13.5577 26.5556 13.5678V22.8889C26.5556 24.2967 25.4079 25.4444 24.0001 25.4444H11.5556C10.1478 25.4444 9.00009 24.2967 9.00009 22.8889V13.5678ZM24.5556 22.8889V15.4762L18.3513 19.8192C18.007 20.0603 17.5487 20.0603 17.2044 19.8192L11.0001 15.4762V22.8889C11.0001 23.1922 11.2524 23.4444 11.5556 23.4444H24.0001C24.3034 23.4444 24.5556 23.1922 24.5556 22.8889Z" fill="#1F4653"/>
</svg>
