<svg width="31" height="36" viewBox="0 0 31 36" fill="none" xmlns="http://www.w3.org/2000/svg">
<path d="M16.974 9.44678L16.9268 9.52156C17.0934 9.53075 17.2495 9.54518 17.3886 9.56617C17.3886 9.57011 17.2495 9.52156 16.974 9.44678Z" fill="white"/>
<path d="M13.2124 10.4675C13.1985 10.4842 13.1858 10.5017 13.1743 10.52L13.215 10.4688L13.2124 10.4675Z" fill="white"/>
<path d="M16.234 9.28802C15.763 9.1988 15.1476 9.10695 14.3879 9.04004C15.1476 9.10695 15.763 9.1988 16.234 9.28802Z" fill="white"/>
<path d="M7.07722 10.0713L6.75708 10.1133L7.07722 10.0713Z" fill="white"/>
<path d="M6.75447 10.1145C6.42646 10.1591 6.07308 10.2133 5.69434 10.2772C6.07396 10.2133 6.42733 10.1591 6.75447 10.1145Z" fill="white"/>
<path d="M19.8474 8.70924C19.5495 8.92179 18.4487 10.1695 18.4487 10.1695C18.4487 10.1695 19.3672 9.86384 19.8815 9.69065C20.3013 9.54895 20.8065 9.85728 21.3798 10.1591L19.543 10.592C19.543 10.592 19.6558 11.1523 20.2056 11.1654C20.6099 11.1835 21.0126 11.2273 21.4113 11.2966C21.4113 11.2966 21.0636 12.24 20.5257 12.5352C20.5257 12.5352 21.4573 12.3974 21.9375 11.311C21.9375 11.311 21.6436 10.9712 21.9073 10.4097C22.5279 10.6419 22.6945 10.3191 22.6945 10.3191L23.1406 9.57781L22.436 10.0187C22.436 10.0187 20.1518 8.49012 19.8474 8.70924Z" fill="white"/>
<path d="M29.3965 27.1515C29.0527 25.7621 29.176 24.37 28.8979 23.0265C28.5541 21.3654 25.9641 19.0234 24.8371 18.0407C25.0743 17.857 25.29 17.647 25.48 17.4148L25.6112 17.2653H25.7424L25.9536 16.9267C26.1518 16.6 26.1124 16.3363 25.6309 15.2972C25.787 15.3444 25.8789 15.3812 25.8815 15.3825L27.0335 15.8614L26.9587 15.267L26.8734 14.5821C26.4798 11.4726 26.1413 11.1511 25.9759 10.995C25.7686 10.8021 25.6138 10.4702 25.1192 10.1697L25.4761 9.84037C25.4761 9.84037 24.9106 7.4262 23.7481 6.50908L24.7059 5.48305C24.7059 5.48305 20.9521 0.0446097 18.0971 0C18.0971 0 15.1292 0.642904 14.5113 1.00634C14.3368 0.995845 14.0796 1.37109 13.7306 1.3829C12.2769 1.44861 10.8299 1.61918 9.40083 1.89329C6.01837 2.52307 5.46468 6.49202 5.4883 8.4063L5.09206 9.74984C4.88607 9.78657 4.67614 9.82462 4.46228 9.8653L4.14607 9.92565L4.01487 10.2169C3.93615 10.3888 3.30636 11.1524 3.81675 13.5456C1.24382 16.663 3.22764 20.4798 3.22764 20.4798C3.35885 20.4693 3.49005 20.4627 3.62126 20.4588C2.46928 20.9928 0.70457 21.9532 0 23.1078C0 23.1078 3.05707 34.3691 8.58605 33.9283C14.115 33.4874 18.0774 33.4625 25.0444 35.18L25.7608 36L26.7251 35.487C28.81 34.0792 29.5342 32.2725 30.0879 30.1456C30.3608 29.0986 29.7402 28.5397 29.3965 27.1515ZM25.3291 16.5489C25.2268 16.5489 24.618 17.3545 24.3936 17.4673H24.3805C24.2055 17.5193 24.0238 17.5454 23.8412 17.5447C24.2178 17.1104 24.0472 16.8205 24.0472 16.8205C23.9987 17.3085 23.0527 17.546 23.0527 17.546H23.0068H22.8913H22.8546H22.7444H22.6998L22.5961 17.5395H22.541H22.4465H22.3822H22.2983L22.2235 17.5329H22.1487L22.0687 17.525L22.0018 17.5185L21.9138 17.5093L21.8561 17.5027L21.7656 17.4922L21.7144 17.4857L21.6239 17.4739H21.5753L21.4848 17.4607H21.4415L21.351 17.445H21.3129L21.229 17.4293L21.1909 17.4214L21.1109 17.4056L21.0754 17.3978L20.998 17.3807L20.9679 17.3728L20.8957 17.3545L20.8695 17.3466L20.8012 17.3269L20.7802 17.3204L20.7225 17.2994L20.7015 17.2915C20.6782 17.2827 20.6554 17.2726 20.6333 17.2613C20.6333 17.2613 19.4 18.9512 18.9958 21.0663C18.7636 22.2865 19.3147 24.2703 19.3147 24.2703C19.3147 24.2703 18.0472 23.0632 18.0367 21.8509C18.0311 21.3392 18.064 20.8278 18.1351 20.321C18.1456 20.2462 18.1574 20.1741 18.1693 20.1019C18.1693 20.0888 18.1693 20.0757 18.1693 20.0625C18.1798 19.9943 18.1929 19.9313 18.2047 19.8592C18.2047 19.8447 18.2112 19.829 18.2139 19.8133C18.227 19.7463 18.2401 19.682 18.2545 19.6151L18.2624 19.5823C18.338 19.2377 18.4335 18.8977 18.5484 18.5642V18.5484C18.5681 18.4907 18.5891 18.4317 18.6101 18.3752C18.6129 18.3693 18.6151 18.3632 18.6167 18.3569C18.7368 18.032 18.8766 17.7148 19.0352 17.407V17.3938C19.0575 17.3518 19.0785 17.3099 19.1008 17.2692V17.2587C19.215 17.0475 19.3252 16.8651 19.4223 16.7194L19.4301 16.7076L19.48 16.6328L19.4918 16.6158C19.5075 16.5935 19.522 16.5712 19.5377 16.5502L19.5469 16.5358C19.5627 16.5148 19.5771 16.4951 19.5902 16.4754C19.6335 16.415 19.6729 16.3652 19.7044 16.3245L19.7148 16.3114L19.7358 16.2852L19.7477 16.2707L19.7621 16.2524L19.7726 16.2405L19.7831 16.2287L19.7909 16.2196C19.7909 16.2196 21.6698 15.637 22.8336 15.3562C22.8913 15.3418 22.9464 15.33 23.0015 15.3195C24.0709 15.0964 24.7662 15.2906 24.7662 15.2906C24.7662 15.2906 25.4341 16.5449 25.3304 16.5489H25.3291ZM15.2959 18.9644C15.2959 18.9644 14.5952 15.2027 15.4454 13.2622L14.4404 12.1574C14.4246 11.9003 14.4303 11.6422 14.4575 11.386L14.7527 11.3742L15.2526 11.3571L17.0566 13.2609L17.7704 14.0166C17.7704 14.0166 17.4634 16.192 17.9659 17.9173C17.6815 18.4591 17.4402 19.0224 17.2443 19.602C16.8152 19.1927 16.0765 18.0932 16.1789 15.4035C16.1763 15.4087 15.6829 15.8758 15.2972 18.9644H15.2959ZM13.7057 11.8084L13.2517 12.5091C12.6127 9.97551 11.6904 12.2467 11.6904 12.2467C12.8555 10.9963 12.7072 12.7098 12.7072 12.7098C12.1824 12.3989 12.1233 12.8174 12.1233 12.8174C12.8856 12.8607 12.4317 13.8434 12.4317 13.8434L11.8544 15.002C11.8544 15.002 11.1983 13.8513 11.0671 13.1651C11.0186 12.9027 11.1393 12.4474 11.3086 11.9843L11.3597 11.8465C11.5906 11.2416 11.8845 10.6656 11.9554 10.5108L11.9724 10.478C12.0171 10.478 12.059 10.478 12.1037 10.4872H12.1417L12.2322 10.5016L12.269 10.5095C12.3075 10.517 12.3456 10.5266 12.3831 10.5384H12.3962L12.4973 10.5725L12.534 10.5882C12.5552 10.6003 12.5758 10.6135 12.5957 10.6276L12.6311 10.6447C12.6639 10.6604 12.6967 10.6775 12.7282 10.6958L12.7426 10.7037L12.8253 10.7549C12.8348 10.7626 12.8449 10.7696 12.8555 10.7759L12.9197 10.8231L12.946 10.8415C13.0037 10.8874 13.0601 10.9346 13.1113 10.9845L13.1257 10.9976L13.1953 11.0671C13.3103 11.189 13.4143 11.3207 13.5062 11.4607C13.5815 11.5714 13.6482 11.6876 13.7057 11.8084ZM14.7553 10.3245L14.8432 10.314C14.9744 10.2996 15.1437 10.2773 15.3457 10.2524L15.7065 10.2064C15.5753 10.4465 15.4546 10.667 15.3575 10.8625L14.67 10.3652L14.6845 10.3258L14.7553 10.3245ZM24.2821 9.59764L23.529 10.297C23.529 10.297 25.1664 11.2259 25.4879 11.525C25.8093 11.8242 26.1675 14.7133 26.1675 14.7133C25.3602 14.4092 24.4939 14.2943 23.6353 14.3774C23.5565 14.3862 23.4778 14.398 23.3991 14.4129H23.3742C23.3007 14.426 23.2285 14.4417 23.155 14.4588H23.1354C23.0619 14.4771 22.9884 14.4981 22.9149 14.5204L22.8664 14.5362L22.8073 14.5559C22.7732 14.5637 22.7378 14.569 22.7037 14.5782L22.6263 14.5965L22.1015 14.014C22.1015 14.014 22.8034 13.316 23.0593 13.2045C23.3151 13.0929 23.7337 13.2583 23.7337 13.2583C23.662 13.2101 23.5875 13.1663 23.5106 13.1271L24.307 13.3672L23.8334 11.8307L24.4684 11.6877L22.8546 11.0317L22.9202 12.946C22.9202 12.946 21.3169 13.4341 21.3169 14.9442C21.2381 14.9587 19.585 15.267 19.3658 15.5268C19.2505 15.6815 19.1461 15.8442 19.0536 16.0136C18.8725 16.2996 18.6363 16.6866 18.3897 17.1236C18.408 16.7903 18.4408 16.2956 18.5012 15.6987C18.5314 15.4087 18.5668 15.0977 18.6101 14.7671L18.6888 14.2213L18.8056 13.4144C18.8056 13.4144 16.7522 11.9711 16.0293 10.9897C16.0293 10.9897 16.2366 10.6447 16.5843 10.0792L17.3007 9.98469H17.3348L17.6261 9.94664L17.8465 9.91778L17.8898 9.91122L18.5261 9.82725H18.5471H18.5786L18.5668 9.81806L18.5537 9.81019L18.5353 9.79838L18.5169 9.78657L18.4933 9.77214L18.4671 9.7564L18.4382 9.73934L18.4041 9.71966L18.37 9.70129L18.3293 9.67767L18.2887 9.65668L18.1994 9.60945L18.1483 9.58321L18.0905 9.55434C18.0722 9.54516 18.0538 9.53728 18.0354 9.52679L17.9711 9.49661L17.9082 9.46906C17.8859 9.45725 17.8622 9.44675 17.8373 9.43626L17.7691 9.40608L17.6917 9.37328L17.6143 9.34179L17.5329 9.30768L17.4555 9.2775L17.4201 9.26438L17.3584 9.24076L17.2574 9.20271L17.18 9.17385C17.752 8.20162 18.412 7.1756 18.8935 6.42904L19.0523 6.18762C19.7516 6.33457 21.2696 6.76755 22.5541 7.17166L22.9897 7.30942L23.0042 7.29368C23.8793 8.01268 24.2808 9.59239 24.2808 9.59239L24.2821 9.59764ZM5.88979 9.62126L6.22174 8.50864C6.22174 8.50864 6.05642 3.69735 9.8115 2.99803C13.5666 2.29871 14.6661 2.52045 14.6661 2.52045C14.6661 2.52045 16.7942 1.20052 18.1365 1.10212C19.4787 1.00372 23.7087 5.48699 23.7087 5.48699L22.9609 6.11677C21.6764 5.66805 19.4564 5.32954 18.9539 5.23508L18.4789 5.14454L18.2165 5.54866C17.4293 6.74393 16.7562 7.94314 16.2615 8.8852L16.1303 8.8524L16.0306 8.82615L15.885 8.79073L15.8181 8.77498C15.7144 8.75137 15.6068 8.72775 15.4979 8.70545L15.4323 8.69232L15.2421 8.65952L15.187 8.64903C15.0558 8.62541 14.9246 8.60179 14.7934 8.5808H14.754C14.8983 8.4063 15.0164 8.27116 15.0663 8.21343C15.3287 7.9274 16.81 6.66783 16.81 6.66783L16.1172 5.64181L17.7533 5.03302C17.7533 5.03302 14.8668 3.37721 12.9407 3.61732L12.3333 3.69473L11.382 3.81281L9.57796 4.03849C9.57796 4.03849 10.0149 4.07654 10.5856 4.1382C10.8821 4.16969 11.2154 4.20774 11.5421 4.25104H11.546L11.7153 4.27334H11.752L11.9042 4.29434H11.9357L12.2795 4.34813L12.3149 4.35469L12.4356 4.37437L12.4802 4.38356L12.5865 4.40324L12.6272 4.41111C12.7177 4.42948 12.8004 4.44785 12.8738 4.46622L12.9053 4.4754C12.9302 4.4754 12.9525 4.48721 12.9749 4.49377L13.0063 4.50426L13.0628 4.52394L13.0851 4.53182C13.1087 4.54231 13.1297 4.5515 13.1454 4.56068H13.0641C12.408 4.60792 7.88673 4.9543 7.58496 5.50273C7.44457 5.77302 7.35666 6.98535 7.23595 8.39711L7.22808 8.49158L7.22021 8.57162C7.22021 8.63722 7.20971 8.70282 7.20315 8.77105C7.20315 8.83665 7.19134 8.90225 7.18478 8.96917V9.01115L7.1651 9.18434V9.22633C7.1651 9.29587 7.15198 9.36541 7.14542 9.43495H7.13492C6.94205 9.45856 6.74131 9.4848 6.54319 9.51367H6.52613C6.32801 9.54253 6.12596 9.57271 5.91865 9.60551L5.88979 9.62126ZM4.57774 10.482L4.89001 10.4229C5.30199 10.3468 5.68642 10.2812 6.04592 10.2248L6.27553 10.1894L6.37393 10.1736L6.59567 10.1421L6.68883 10.129L6.904 10.0988L6.98929 10.087L7.1979 10.0608L7.274 10.0516L7.47868 10.0214H7.54559C9.32473 9.81938 10.1933 9.89023 10.4938 9.93615H10.5279H10.5541H10.5725H10.583H10.5974L9.47824 9.02952C10.9212 8.91227 12.3707 8.89649 13.8159 8.98229C14.5356 9.02693 15.2525 9.10882 15.9637 9.22764H15.9781L16.1395 9.25651H16.1579L16.2983 9.28406H16.3114H16.3258L16.457 9.3103H16.4715L16.6027 9.33916C16.6919 9.35885 16.7732 9.37721 16.8467 9.39558H16.8625L16.9425 9.41526H16.953L17.0094 9.43101L17.0475 9.44019L17.096 9.45331L17.1288 9.4625L17.197 9.48218L17.2272 9.49136L17.2561 9.50055H17.2784H17.3007H17.3164H17.3309H17.344H17.3505L17.2049 9.48087H17.1498L17.0488 9.47168H16.9845L16.9254 9.52548H16.8546H16.7496H16.3153H16.1592H16.1277C15.0457 9.58183 13.9677 9.69878 12.8988 9.87579L14.1714 10.7772C14.0586 10.7772 13.934 10.7929 13.8041 10.806C13.4301 10.5935 12.677 10.1631 12.3464 9.98338C12.3201 9.96895 12.2952 9.95714 12.2703 9.94533L12.2454 9.93484L12.2021 9.91515L12.1732 9.90597L12.1365 9.89679H12.1089H12.0761H12.0197H11.9934H11.9659H11.9423L11.9121 9.90991L11.8937 9.91778C11.8342 9.95068 11.782 9.99531 11.7402 10.049C11.7192 10.0752 11.6982 10.1028 11.6785 10.133C11.6379 10.1946 11.5959 10.2642 11.5473 10.3429C11.5435 10.3515 11.5391 10.3598 11.5342 10.3678C11.5132 10.4045 11.4922 10.4439 11.4699 10.4846C11.3127 10.7811 11.176 11.0879 11.0606 11.403L10.8087 11.4765L10.7365 11.4975L10.5502 11.5539L10.4728 11.5762L10.2576 11.6431L10.2196 11.6549L9.95714 11.7363L9.91122 11.7507L9.69736 11.8189L9.63044 11.8399L9.42051 11.9082L9.37065 11.9252L8.84583 12.0971L8.78942 12.1155L8.58342 12.2021L8.53882 12.2178C8.36562 12.2755 8.19637 12.3346 8.02843 12.3936L7.99431 12.4054C7.92346 12.429 7.85393 12.454 7.7857 12.4789L7.73322 12.4973L7.50754 12.576H7.49967L7.25432 12.6626H7.24251L7.02996 12.7387L6.98666 12.7544L6.79773 12.8227L6.76493 12.8358L6.34901 12.988L6.30571 13.0037L6.15482 13.0601L6.1089 13.0772L5.93833 13.1415H5.93046L5.75333 13.2084L5.73234 13.2163L5.60114 13.2688L5.56178 13.2832L5.43057 13.3317H5.41351L5.18391 13.4196L4.74962 13.5889L4.71944 13.6007L4.6932 13.6112C4.67614 13.5298 4.6604 13.4498 4.64465 13.3724C4.63547 13.3239 4.62629 13.2766 4.61841 13.2294C4.61841 13.2045 4.60792 13.1782 4.60398 13.1546L4.56593 12.9893C4.56657 12.9823 4.56657 12.9753 4.56593 12.9683C4.55543 12.9053 4.54625 12.8371 4.53707 12.782L7.75552 10.995L4.44522 11.9134C4.39274 10.89 4.57905 10.4767 4.57905 10.4767L4.57774 10.482ZM15.8758 31.8684C15.1424 31.8635 14.4097 31.9122 13.6834 32.014C7.7857 32.8563 1.68205 26.3236 1.07194 23.1367C3.42576 23.1983 9.0164 23.3335 11.3164 23.2876C11.8496 23.2748 12.3764 23.4062 12.841 23.6681C12.988 23.7638 13.1336 23.8596 13.2792 23.958C14.8458 25.1677 15.5885 27.7092 15.8364 28.9661C16.007 29.8124 15.9611 30.9434 15.8758 31.8657V31.8684ZM17.1104 26.9114C19.4483 28.9379 21.6205 31.1478 23.6064 33.5202C21.5852 32.6748 19.4477 32.14 17.2666 31.934C17.4293 30.5786 17.5382 28.6027 17.1117 26.9088L17.1104 26.9114ZM29.138 29.9738C28.8244 32.258 27.7131 33.8364 26.0442 34.9595C26.0442 34.9595 14.6753 19.5036 4.09622 19.0903C4.09622 19.0903 3.28406 16.5043 4.21037 14.4339L4.23136 14.4798L4.91494 14.2082L4.98054 14.1832C5.11962 14.1281 5.47256 13.9904 5.96589 13.8041L5.98688 13.7962L6.16401 13.7293L6.20468 13.7148C5.4778 15.4651 5.5211 17.9711 5.52241 18.0276C5.54341 18.0354 7.89197 18.9814 9.26307 19.5299L10.133 19.4826C10.133 19.4826 11.2981 16.2025 12.6691 14.8721C12.6691 14.8721 11.0461 19.0431 11.508 20.3341C11.508 20.3341 13.5718 21.0912 15.0295 22.2852C16.4872 23.4791 22.5082 27.8299 24.5786 31.9353C24.5786 31.9353 25.5994 33.2644 25.9117 34.2629L25.9195 34.2563C26.073 34.1421 28.1107 32.6031 28.5646 30.2231L28.5764 30.1588C28.5895 30.084 28.6014 30.0105 28.6105 29.9344L28.6263 29.8111C28.6263 29.7796 28.6263 29.7481 28.6355 29.7166C28.642 29.6405 28.6473 29.5644 28.6512 29.487C28.6512 29.487 27.8417 32.3131 26.7829 31.5863C26.7333 31.5518 26.6863 31.5136 26.6425 31.4721C26.6344 31.4658 26.6269 31.4588 26.6202 31.4511C26.5802 31.4127 26.5425 31.372 26.5073 31.3291C26.5008 31.3186 26.4929 31.3094 26.4863 31.3002C26.4532 31.2583 26.4225 31.2145 26.3945 31.169C26.3905 31.1623 26.387 31.1553 26.384 31.148C26.3591 31.1034 26.3368 31.0588 26.3158 31.0168C26.3119 31.007 26.3076 30.9973 26.3026 30.988C26.283 30.9381 26.2659 30.8883 26.2502 30.8371C26.2502 30.8227 26.241 30.8082 26.237 30.7938C26.2226 30.7426 26.2095 30.6901 26.199 30.6377C26.1961 30.6242 26.1939 30.6107 26.1924 30.597C26.1833 30.5497 26.1754 30.5012 26.1701 30.4527C26.1701 30.4422 26.1701 30.4317 26.1701 30.4212C26.1649 30.3661 26.1609 30.311 26.1583 30.2559C26.1583 30.2401 26.1583 30.2244 26.1583 30.2086C26.1583 30.1548 26.1583 30.101 26.1583 30.0459C26.1583 30.0315 26.1583 30.0171 26.1583 30.0026C26.1583 29.9475 26.1583 29.8911 26.1583 29.836C26.159 29.8312 26.159 29.8264 26.1583 29.8216C26.1583 29.7651 26.1675 29.7087 26.1741 29.6536C26.1734 29.644 26.1734 29.6344 26.1741 29.6248C26.1806 29.567 26.1872 29.5106 26.1951 29.4555V29.4345C26.2277 29.2203 26.2715 29.0078 26.3263 28.7982C26.3551 28.7037 26.3814 28.6092 26.4063 28.5121C26.4063 28.5121 26.4063 28.5121 26.4063 28.5056C26.4079 28.4956 26.4079 28.4854 26.4063 28.4754C26.519 28.0334 26.5754 27.5789 26.5742 27.1227C26.5742 27.1227 25.5955 28.7654 25.0313 28.4347C24.4671 28.1041 22.3048 25.0431 22.1225 24.6665C21.9401 24.29 24.1548 24.5274 24.5524 25.0326C24.5524 25.0326 24.038 24.1522 22.3612 23.5539C20.6845 22.9556 19.7017 20.5519 19.7017 20.5519L20.2423 19.1559L20.6831 18.0092L20.7435 18.042H20.7514L20.8681 18.0984H20.8799L20.956 18.1338H20.9639L21.0426 18.1693L21.0597 18.1771L21.1542 18.2178L21.1712 18.2257L21.2591 18.2624L21.2841 18.2729L21.389 18.3136L21.4218 18.3267L21.5097 18.3595L21.5452 18.3726L21.5858 18.3871L21.6121 18.3962L21.6567 18.412L21.7052 18.4277L21.7748 18.45L21.8259 18.4658L21.8548 18.475L21.9191 18.4933H21.9375L22.0004 18.5117L22.0332 18.5196C22.0529 18.5261 22.0726 18.5301 22.0936 18.5353L22.1776 18.5563L22.2589 18.576H22.2812H22.2917L22.3612 18.5904L22.4426 18.6049L22.5554 18.6232L22.6368 18.6337L22.7063 18.6416L22.8257 18.6521H22.8992H22.9766H23.0881C23.5006 18.6634 23.9012 18.5132 24.2047 18.2335C24.2047 18.2335 27.7157 21.0846 28.0372 22.9372C28.2151 24.0288 28.2508 25.1389 28.1435 26.2397C28.0962 26.998 29.2482 29.1826 29.1393 29.9711L29.138 29.9738Z" fill="white"/>
</svg>
