<svg width="197" height="52" viewBox="0 0 197 52" fill="none" xmlns="http://www.w3.org/2000/svg">
<path d="M24.518 13.6453L24.4497 13.7534C24.6904 13.7666 24.916 13.7875 25.1168 13.8178C25.1168 13.8235 24.916 13.7534 24.518 13.6453Z" fill="white"/>
<path d="M19.0845 15.1198C19.0645 15.1438 19.0461 15.1691 19.0295 15.1956L19.0883 15.1216L19.0845 15.1198Z" fill="white"/>
<path d="M23.4491 13.416C22.7687 13.2871 21.8799 13.1545 20.7826 13.0578C21.8799 13.1545 22.7687 13.2871 23.4491 13.416Z" fill="white"/>
<path d="M10.2226 14.5474L9.76019 14.6081L10.2226 14.5474Z" fill="white"/>
<path d="M9.7564 14.61C9.28261 14.6744 8.77217 14.7527 8.2251 14.845C8.77344 14.7527 9.28387 14.6744 9.7564 14.61Z" fill="white"/>
<path d="M28.6684 12.5802C28.2382 12.8872 26.6482 14.6895 26.6482 14.6895C26.6482 14.6895 27.9748 14.248 28.7177 13.9978C29.3242 13.7931 30.0538 14.2385 30.882 14.6744L28.2287 15.2998C28.2287 15.2998 28.3917 16.109 29.1858 16.128C29.7698 16.1541 30.3515 16.2174 30.9275 16.3175C30.9275 16.3175 30.4253 17.6801 29.6482 18.1066C29.6482 18.1066 30.9938 17.9076 31.6875 16.3384C31.6875 16.3384 31.2629 15.8475 31.6439 15.0364C32.5403 15.3718 32.781 14.9056 32.781 14.9056L33.4253 13.8348L32.4076 14.4716C32.4076 14.4716 29.1081 12.2637 28.6684 12.5802Z" fill="#6A0A1E"/>
<path d="M42.4615 39.2189C41.965 37.2119 42.1432 35.2011 41.7414 33.2604C41.2448 30.8611 37.5038 27.4782 35.8758 26.0588C36.2185 25.7934 36.53 25.4902 36.8044 25.1547L36.9939 24.9387H37.1835L37.4886 24.4497C37.7748 23.9778 37.7179 23.5969 37.0224 22.0959C37.2479 22.1642 37.3806 22.2172 37.3844 22.2191L39.0483 22.9109L38.9403 22.0523L38.8171 21.0631C38.2486 16.5715 37.7596 16.1072 37.5208 15.8816C37.2214 15.603 36.9977 15.1236 36.2833 14.6896L36.7987 14.2139C36.7987 14.2139 35.9819 10.7267 34.3028 9.402L35.6863 7.91997C35.6863 7.91997 30.2642 0.0644362 26.1402 0C26.1402 0 21.8533 0.928639 20.9607 1.4536C20.7087 1.43844 20.3372 1.98047 19.8331 1.99752C17.7334 2.09243 15.6432 2.33881 13.579 2.73475C8.6932 3.64443 7.89343 9.37736 7.92755 12.1424L7.3552 14.0831C7.05766 14.1362 6.75443 14.1911 6.44551 14.2499L5.98877 14.3371L5.79926 14.7578C5.68555 15.0061 4.77586 16.109 5.51308 19.5659C1.79663 24.0688 4.66215 29.5819 4.66215 29.5819C4.85167 29.5667 5.04118 29.5573 5.2307 29.5516C3.56673 30.3229 1.01771 31.7102 0 33.3779C0 33.3779 4.41577 49.6443 12.4021 49.0075C20.3884 48.3707 26.1118 48.3347 36.1752 50.8155L37.21 52L38.603 51.259C41.6144 49.2255 42.6605 46.6158 43.4603 43.5437C43.8545 42.0313 42.9581 41.224 42.4615 39.2189ZM36.5865 23.9039C36.4387 23.9039 35.5593 25.0676 35.2352 25.2306H35.2163C34.9635 25.3057 34.7011 25.3434 34.4374 25.3424C34.9813 24.7151 34.7349 24.2962 34.7349 24.2962C34.6648 25.0012 33.2983 25.3443 33.2983 25.3443H33.232H33.0652H33.0122H32.853H32.7885L32.6388 25.3348H32.5592H32.4228H32.3299H32.2086L32.1006 25.3253H31.9926L31.877 25.3139L31.7803 25.3045L31.6533 25.2912L31.5699 25.2817L31.4392 25.2666L31.3653 25.2571L31.2345 25.24H31.1644L31.0336 25.2211H30.9711L30.8403 25.1983H30.7853L30.664 25.1756L30.6091 25.1642L30.4935 25.1415L30.4423 25.1301L30.3305 25.1055L30.2869 25.0941L30.1827 25.0676L30.1448 25.0562L30.0462 25.0278L30.0159 25.0183L29.9325 24.988L29.9022 24.9766C29.8685 24.9639 29.8356 24.9494 29.8036 24.933C29.8036 24.933 28.0222 27.374 27.4384 30.429C27.103 32.1916 27.899 35.0571 27.899 35.0571C27.899 35.0571 26.0682 33.3135 26.0531 31.5624C26.045 30.8232 26.0925 30.0846 26.1952 29.3526C26.2104 29.2446 26.2274 29.1403 26.2445 29.0361C26.2445 29.0171 26.2445 28.9982 26.2445 28.9792C26.2596 28.8807 26.2786 28.7897 26.2956 28.6855C26.2956 28.6646 26.3051 28.6419 26.3089 28.6191C26.3279 28.5225 26.3468 28.4296 26.3677 28.333L26.379 28.2856C26.4882 27.7878 26.6261 27.2967 26.7922 26.8149V26.7922C26.8206 26.7088 26.8509 26.6235 26.8813 26.542C26.8853 26.5335 26.8884 26.5246 26.8907 26.5155C27.0642 26.0463 27.2661 25.5881 27.4953 25.1434V25.1244C27.5275 25.0638 27.5578 25.0031 27.5901 24.9444V24.9292C27.7549 24.6241 27.9141 24.3607 28.0544 24.1503L28.0657 24.1332L28.1378 24.0252L28.1548 24.0006C28.1776 23.9684 28.1984 23.9361 28.2212 23.9058L28.2344 23.885C28.2572 23.8547 28.278 23.8262 28.297 23.7978C28.3595 23.7106 28.4164 23.6386 28.4618 23.5799L28.477 23.5609L28.5073 23.523L28.5244 23.5021L28.5452 23.4756L28.5604 23.4586L28.5756 23.4415L28.5869 23.4282C28.5869 23.4282 31.3008 22.5868 32.9818 22.1812C33.0652 22.1604 33.1448 22.1433 33.2244 22.1281C34.769 21.806 35.7735 22.0864 35.7735 22.0864C35.7735 22.0864 36.7381 23.8982 36.5884 23.9039H36.5865ZM22.094 27.393C22.094 27.393 21.082 21.9595 22.3101 19.1565L20.8584 17.5608C20.8356 17.1893 20.8438 16.8165 20.883 16.4464L21.3094 16.4293L22.0315 16.4047L24.6374 19.1546L25.6683 20.2462C25.6683 20.2462 25.2249 23.3884 25.9507 25.8806C25.5399 26.6631 25.1914 27.4768 24.9084 28.314C24.2886 27.7227 23.2217 26.1346 23.3695 22.2494C23.3657 22.257 22.6531 22.9317 22.0959 27.393H22.094ZM19.7971 17.0566L19.1413 18.0687C18.2184 14.4091 16.8861 17.6896 16.8861 17.6896C18.569 15.8835 18.3548 18.3586 18.3548 18.3586C17.5968 17.9095 17.5115 18.514 17.5115 18.514C18.6126 18.5766 17.9568 19.9961 17.9568 19.9961L17.123 21.6695C17.123 21.6695 16.1754 20.0074 15.9859 19.0163C15.9157 18.6372 16.0901 17.9796 16.3346 17.3106L16.4085 17.1116C16.742 16.2379 17.1666 15.4059 17.2689 15.1823L17.2935 15.1349C17.358 15.1349 17.4186 15.1349 17.4831 15.1482H17.538L17.6688 15.169L17.7218 15.1804C17.7776 15.1912 17.8326 15.2051 17.8867 15.2221H17.9057L18.0516 15.2714L18.1047 15.2941C18.1353 15.3116 18.165 15.3305 18.1937 15.351L18.2449 15.3756C18.2923 15.3984 18.3397 15.423 18.3852 15.4495L18.406 15.4609L18.5254 15.5348C18.5392 15.546 18.5537 15.5561 18.569 15.5651L18.6619 15.6334L18.6998 15.6599C18.7831 15.7262 18.8646 15.7944 18.9386 15.8665L18.9594 15.8854L19.0598 15.9859C19.226 16.1618 19.3763 16.3521 19.509 16.5544C19.6178 16.7142 19.7141 16.8821 19.7971 17.0566ZM21.3132 14.9132L21.4402 14.898C21.6297 14.8772 21.8742 14.845 22.166 14.809L22.6872 14.7426C22.4977 15.0894 22.3233 15.4078 22.1831 15.6902L21.19 14.9719L21.2109 14.9151L21.3132 14.9132ZM35.0741 13.8633L33.9863 14.8734C33.9863 14.8734 36.3515 16.2152 36.8158 16.6473C37.2801 17.0794 37.7975 21.2526 37.7975 21.2526C36.6314 20.8133 35.3801 20.6474 34.1398 20.7674C34.0261 20.78 33.9124 20.7971 33.7987 20.8186H33.7627C33.6565 20.8375 33.5523 20.8603 33.4462 20.8849H33.4177C33.3116 20.9114 33.2055 20.9418 33.0993 20.974L33.0292 20.9967L32.9439 21.0251C32.8947 21.0365 32.8435 21.0441 32.7942 21.0574L32.6824 21.0839L31.9243 20.2424C31.9243 20.2424 32.9383 19.2342 33.3078 19.0731C33.6774 18.912 34.2819 19.1508 34.2819 19.1508C34.1785 19.0812 34.0709 19.0179 33.9598 18.9613L35.1101 19.3081L34.426 17.0889L35.3432 16.8823L33.0122 15.9347L33.1069 18.6998C33.1069 18.6998 30.791 19.4048 30.791 21.5861C30.6773 21.607 28.2894 22.0523 27.9729 22.4276C27.8062 22.6511 27.6555 22.886 27.5218 23.1307C27.2603 23.5438 26.9192 24.1029 26.5629 24.734C26.5894 24.2526 26.6368 23.5382 26.724 22.6759C26.7675 22.257 26.8187 21.8079 26.8813 21.3303L26.995 20.5419L27.1636 19.3763C27.1636 19.3763 24.1977 17.2916 23.1534 15.874C23.1534 15.874 23.4529 15.3756 23.9551 14.5588L24.9899 14.4223H25.0391L25.4599 14.3674L25.7783 14.3257L25.8408 14.3162L26.76 14.1949H26.7903H26.8358L26.8187 14.1816L26.7998 14.1703L26.7732 14.1532L26.7467 14.1362L26.7126 14.1153L26.6747 14.0926L26.633 14.0679L26.5837 14.0395L26.5344 14.013L26.4757 13.9789L26.4169 13.9485L26.2881 13.8803L26.2142 13.8424L26.1308 13.8007C26.1042 13.7874 26.0777 13.7761 26.0512 13.7609L25.9583 13.7173L25.8673 13.6775C25.8351 13.6605 25.801 13.6453 25.765 13.6301L25.6664 13.5866L25.5546 13.5392L25.4428 13.4937L25.3253 13.4444L25.2135 13.4008L25.1623 13.3819L25.0733 13.3478L24.9273 13.2928L24.8155 13.2511C25.6418 11.8468 26.5951 10.3647 27.2906 9.28639L27.5199 8.93768C28.5301 9.14994 30.7228 9.77535 32.5782 10.3591L33.2074 10.5581L33.2282 10.5353C34.4923 11.5739 35.0722 13.8557 35.0722 13.8557L35.0741 13.8633ZM8.50747 13.8974L8.98695 12.2903C8.98695 12.2903 8.74816 5.34062 14.1722 4.33049C19.5962 3.32036 21.1843 3.64064 21.1843 3.64064C21.1843 3.64064 24.2583 1.73409 26.1971 1.59195C28.1359 1.44981 34.2459 7.92565 34.2459 7.92565L33.1657 8.83534C31.3103 8.18719 28.1037 7.69823 27.3778 7.56178L26.6917 7.43101L26.3127 8.01472C25.1756 9.74123 24.2034 11.4734 23.4889 12.8342L23.2994 12.7868L23.1553 12.7489L22.945 12.6977L22.8483 12.675C22.6986 12.6409 22.5432 12.6067 22.3859 12.5745L22.2911 12.5556L22.0163 12.5082L21.9367 12.493C21.7472 12.4589 21.5577 12.4248 21.3682 12.3945H21.3113C21.5198 12.1424 21.6904 11.9472 21.7624 11.8638C22.1414 11.4507 24.2811 9.63131 24.2811 9.63131L23.2804 8.14928L25.6437 7.26992C25.6437 7.26992 21.4743 4.8782 18.6922 5.22502L17.8147 5.33683L16.4407 5.5074L13.8348 5.83337C13.8348 5.83337 14.4659 5.88833 15.2903 5.9774C15.7186 6.02289 16.2 6.07785 16.6719 6.14039H16.6776L16.9221 6.17261H16.9751L17.195 6.20293H17.2405L17.737 6.28063L17.7882 6.29011L17.9625 6.31854L18.027 6.3318L18.1805 6.36023L18.2392 6.3716C18.37 6.39813 18.4894 6.42467 18.5955 6.4512L18.641 6.46447C18.677 6.46447 18.7092 6.48152 18.7415 6.491L18.7869 6.50616L18.8684 6.53459L18.9007 6.54596C18.9348 6.56112 18.9651 6.57439 18.9878 6.58765H18.8703C17.9227 6.65588 11.3919 7.15621 10.956 7.94839C10.7533 8.3388 10.6263 10.0899 10.4519 12.1292L10.4406 12.2656L10.4292 12.3812C10.4292 12.476 10.414 12.5707 10.4045 12.6693C10.4045 12.764 10.3875 12.8588 10.378 12.9555V13.0161L10.3496 13.2663V13.3269C10.3496 13.4274 10.3306 13.5278 10.3212 13.6283H10.306C10.0274 13.6624 9.73744 13.7003 9.45127 13.742H9.42663C9.14046 13.7837 8.8486 13.8272 8.54917 13.8746L8.50747 13.8974ZM6.61229 15.1406L7.06334 15.0553C7.65843 14.9454 8.21372 14.8506 8.733 14.7692L9.06466 14.718L9.20679 14.6952L9.52708 14.6498L9.66164 14.6308L9.97245 14.5872L10.0956 14.5702L10.397 14.5323L10.5069 14.519L10.8025 14.4754H10.8992C13.4691 14.1835 14.7237 14.2859 15.1577 14.3522H15.2069H15.2448H15.2714H15.2865H15.3074L13.6908 13.0426C15.7751 12.8733 17.8688 12.8505 19.9563 12.9744C20.9958 13.0389 22.0314 13.1572 23.0587 13.3288H23.0795L23.3126 13.3705H23.3392L23.5419 13.4103H23.5609H23.5817L23.7713 13.4482H23.7921L23.9816 13.4899C24.1105 13.5183 24.228 13.5449 24.3341 13.5714H24.3569L24.4725 13.5998H24.4876L24.5691 13.6226L24.6241 13.6358L24.6942 13.6548L24.7416 13.6681L24.8401 13.6965L24.8837 13.7097L24.9254 13.723H24.9576H24.9899H25.0126H25.0335H25.0524H25.0619L24.8515 13.6946H24.7719L24.626 13.6813H24.5331L24.4478 13.759H24.3455H24.1939H23.5666H23.3411H23.2956C21.7327 13.8404 20.1755 14.0094 18.6315 14.265L20.4699 15.567C20.3069 15.567 20.1268 15.5898 19.9392 15.6087C19.3991 15.3017 18.3112 14.6801 17.8337 14.4204C17.7958 14.3996 17.7597 14.3825 17.7237 14.3655L17.6877 14.3503L17.6252 14.3219L17.5835 14.3086L17.5304 14.2954H17.4906H17.4433H17.3618H17.3239H17.2841H17.2499L17.2064 14.3143L17.1798 14.3257C17.0938 14.3732 17.0184 14.4377 16.9581 14.5152C16.9278 14.5531 16.8974 14.5929 16.869 14.6365C16.8103 14.7256 16.7496 14.826 16.6795 14.9397C16.6739 14.9521 16.6676 14.9641 16.6605 14.9757C16.6302 15.0288 16.5999 15.0856 16.5677 15.1444C16.3406 15.5726 16.1431 16.0159 15.9764 16.471L15.6125 16.5772L15.5083 16.6075L15.2392 16.689L15.1273 16.7212L14.8165 16.8178L14.7616 16.8349L14.3825 16.9524L14.3162 16.9732L14.0073 17.0718L13.9106 17.1021L13.6074 17.2007L13.5354 17.2253L12.7773 17.4736L12.6958 17.5001L12.3983 17.6252L12.3338 17.6479C12.0837 17.7313 11.8392 17.8166 11.5966 17.9019L11.5473 17.9189C11.445 17.9531 11.3446 17.9891 11.246 18.0251L11.1702 18.0516L10.8442 18.1653H10.8329L10.4785 18.2904H10.4614L10.1544 18.4003L10.0918 18.4231L9.81894 18.5216L9.77156 18.5406L9.17078 18.7604L9.10824 18.7831L8.8903 18.8646L8.82397 18.8893L8.57759 18.9821H8.56622L8.31037 19.0788L8.28005 19.0902L8.09053 19.166L8.03368 19.1868L7.84416 19.2569H7.81952L7.48786 19.3839L6.86056 19.6284L6.81697 19.6455L6.77907 19.6606C6.75443 19.5431 6.73169 19.4275 6.70894 19.3157C6.69568 19.2456 6.68241 19.1773 6.67104 19.1091C6.67104 19.0731 6.65588 19.0352 6.65019 19.0011L6.59523 18.7623C6.59615 18.7522 6.59615 18.7421 6.59523 18.732C6.58007 18.641 6.56681 18.5425 6.55354 18.4629L11.2024 15.8816L6.42088 17.2083C6.34507 15.73 6.61418 15.133 6.61418 15.133L6.61229 15.1406ZM22.9317 46.0321C21.8724 46.025 20.8139 46.0954 19.7649 46.2424C11.246 47.4591 2.42962 38.023 1.54836 33.4196C4.94832 33.5087 13.0237 33.7039 16.3459 33.6376C17.1161 33.6191 17.877 33.809 18.5481 34.1872C18.7604 34.3255 18.9708 34.4639 19.1811 34.606C21.444 36.3534 22.5167 40.0243 22.8748 41.8399C23.1212 43.0623 23.0549 44.696 22.9317 46.0283V46.0321ZM24.7151 38.8721C28.092 41.7992 31.2296 44.9913 34.0981 48.4181C31.1786 47.197 28.0912 46.4245 24.9406 46.1268C25.1756 44.1691 25.3329 41.315 24.717 38.8683L24.7151 38.8721ZM42.0882 43.2954C41.6353 46.5949 40.03 48.8748 37.6194 50.4971C37.6194 50.4971 21.1976 28.1719 5.91676 27.5749C5.91676 27.5749 4.74364 23.8395 6.08164 20.8489L6.11196 20.9152L7.09935 20.5229L7.19411 20.4869C7.395 20.4073 7.9048 20.2083 8.61739 19.9392L8.64771 19.9278L8.90356 19.8312L8.96231 19.8103C7.91238 22.3385 7.97493 25.9583 7.97682 26.0398C8.00714 26.0512 11.3995 27.4176 13.38 28.2098L14.6365 28.1416C14.6365 28.1416 16.3194 23.4036 18.2999 21.4819C18.2999 21.4819 15.9555 27.5067 16.6226 29.3715C16.6226 29.3715 19.6038 30.465 21.7093 32.1897C23.8149 33.9143 32.5118 40.1987 35.5024 46.1287C35.5024 46.1287 36.9769 48.0485 37.4279 49.4908L37.4393 49.4813C37.6611 49.3164 40.6043 47.0934 41.26 43.6555L41.2771 43.5626C41.296 43.4546 41.3131 43.3485 41.3263 43.2386L41.3491 43.0604C41.3491 43.0149 41.3491 42.9695 41.3623 42.924C41.3718 42.8141 41.3794 42.7041 41.3851 42.5923C41.3851 42.5923 40.2158 46.6745 38.6863 45.6246C38.6147 45.5748 38.5469 45.5197 38.4836 45.4597C38.4719 45.4506 38.4611 45.4405 38.4513 45.4294C38.3936 45.3739 38.3392 45.3151 38.2884 45.2532C38.2789 45.238 38.2675 45.2247 38.258 45.2115C38.2102 45.1509 38.1659 45.0876 38.1254 45.0219C38.1196 45.0122 38.1145 45.0021 38.1102 44.9916C38.0742 44.9272 38.042 44.8627 38.0117 44.8021C38.0061 44.7879 37.9998 44.7739 37.9927 44.7604C37.9643 44.6884 37.9396 44.6164 37.9169 44.5425C37.9169 44.5216 37.9036 44.5008 37.898 44.4799C37.8771 44.406 37.8582 44.3302 37.843 44.2544C37.8388 44.235 37.8356 44.2154 37.8335 44.1956C37.8203 44.1274 37.8089 44.0573 37.8013 43.9872C37.8013 43.972 37.8013 43.9568 37.8013 43.9417C37.7937 43.8621 37.788 43.7825 37.7842 43.7029C37.7842 43.6802 37.7842 43.6574 37.7842 43.6347C37.7842 43.557 37.7842 43.4793 37.7842 43.3997C37.7842 43.3788 37.7842 43.358 37.7842 43.3371C37.7842 43.2575 37.7842 43.176 37.7842 43.0964C37.7852 43.0895 37.7852 43.0825 37.7842 43.0756C37.7842 42.9941 37.7975 42.9126 37.807 42.833C37.806 42.8191 37.806 42.8052 37.807 42.7913C37.8165 42.7079 37.8259 42.6264 37.8373 42.5468V42.5165C37.8844 42.207 37.9477 41.9002 38.0268 41.5973C38.0685 41.4609 38.1064 41.3244 38.1424 41.1842C38.1424 41.1842 38.1424 41.1842 38.1424 41.1747C38.1448 41.1603 38.1448 41.1456 38.1424 41.1311C38.3052 40.4926 38.3867 39.8361 38.385 39.1772C38.385 39.1772 36.9712 41.55 36.1563 41.0724C35.3414 40.5948 32.2181 36.1733 31.9547 35.6294C31.6912 35.0855 34.8903 35.4285 35.4645 36.1582C35.4645 36.1582 34.7216 34.8865 32.2996 34.0223C29.8775 33.1581 28.4581 29.6861 28.4581 29.6861L29.2389 27.6697L29.8756 26.0133L29.9628 26.0606H29.9742L30.1429 26.1421H30.1599L30.2698 26.1933H30.2812L30.3949 26.2445L30.4196 26.2558L30.556 26.3146L30.5807 26.326L30.7076 26.379L30.7436 26.3942L30.8953 26.4529L30.9426 26.4719L31.0696 26.5193L31.1208 26.5382L31.1795 26.5591L31.2174 26.5723L31.2819 26.5951L31.352 26.6178L31.4524 26.65L31.5264 26.6728L31.568 26.6861L31.6609 26.7126H31.6874L31.7784 26.7391L31.8258 26.7505C31.8542 26.76 31.8826 26.7657 31.913 26.7732L32.0343 26.8036L32.1518 26.832H32.184H32.1991L32.2996 26.8528L32.4171 26.8737L32.5801 26.9002L32.6976 26.9154L32.798 26.9267L32.9705 26.9419H33.0766H33.1884H33.3495C33.9454 26.9582 34.524 26.7413 34.9623 26.3373C34.9623 26.3373 40.0338 30.4556 40.4981 33.1316C40.7551 34.7083 40.8067 36.3117 40.6516 37.9017C40.5834 38.9972 42.2474 42.1526 42.0901 43.2916L42.0882 43.2954Z" fill="#6A0A1E"/>
<path d="M68.6605 14.0056C68.6605 17.0111 68.6605 20.0158 68.6605 23.0195C67.3859 23.0584 66.1132 23.1002 64.8423 23.1447C64.8423 20.0965 64.8423 17.0501 64.8423 14.0056H60V38C61.6085 37.8479 63.2189 37.7013 64.8312 37.5603C64.8312 34.2931 64.8312 31.0269 64.8312 27.7616C66.1039 27.6948 67.3766 27.6317 68.6494 27.5723V37.2375C70.2616 37.1076 71.8729 36.9814 73.4833 36.859C73.4833 29.2393 73.4907 21.6215 73.5056 14.0056L68.6605 14.0056Z" fill="#6A0A1E"/>
<path d="M90.5037 17.4146C90.5037 16.2792 90.5037 15.1428 90.5037 14.0056H79.9286L79.9035 36.4555C83.4286 36.2217 86.9536 36.0139 90.4787 35.8321C90.4787 34.6966 90.4787 33.5603 90.4787 32.423C88.5622 32.5028 86.6466 32.5955 84.7319 32.7013C84.7319 30.7829 84.7319 28.8646 84.7319 26.9462C86.4314 26.885 88.1317 26.8293 89.833 26.7792C89.833 25.3525 89.833 23.9248 89.833 22.4963C88.1317 22.5297 86.4323 22.5668 84.7347 22.6076C84.7347 20.8933 84.7347 19.1818 84.7347 17.4731C86.6642 17.449 88.5872 17.4295 90.5037 17.4146Z" fill="#6A0A1E"/>
<path d="M106.87 26.5538C108.34 25.9249 109.096 24.7032 109.096 22.9054C109.096 21.2356 109.096 19.5659 109.096 17.8961C109.096 16.1206 108.245 14 104.171 14H96.0779C96.0668 21.2004 96.0575 28.398 96.0501 35.5928C97.6642 35.5241 99.2783 35.4583 100.892 35.3952C100.892 32.6327 100.892 29.8664 100.892 27.0965L102.398 27.0631C103.248 29.8052 104.096 32.5362 104.942 35.256C106.502 35.2059 108.063 35.1614 109.625 35.1224C108.711 32.2764 107.792 29.4202 106.87 26.5538ZM100.909 17.3451C101.599 17.3451 102.301 17.3451 102.98 17.3451C103.876 17.3451 104.243 17.6429 104.24 18.3942C104.24 19.7226 104.24 21.051 104.24 22.3794C104.24 23.1308 103.873 23.4425 102.977 23.4564L100.909 23.4675V17.3451Z" fill="#6A0A1E"/>
<path d="M122.95 14.0056H120.036C115.795 14.0056 114.902 16.1122 114.902 17.8822C114.902 23.5983 114.902 29.3145 114.902 35.0306C116.516 34.9991 118.131 34.974 119.747 34.9555C119.747 32.6401 119.747 30.321 119.747 27.9981L123.245 27.9787V34.9248C124.859 34.9137 126.474 34.9137 128.09 34.9248V17.8627C128.082 16.1011 127.188 14.0056 122.95 14.0056ZM123.228 18.0297V23.8738H119.73C119.73 21.9202 119.73 19.9666 119.73 18.013C119.73 17.7347 119.73 17.2505 120.952 17.2505H122.004C123.239 17.2727 123.239 17.7653 123.239 18.0297H123.228Z" fill="#6A0A1E"/>
<path d="M146.875 21.4304C146.875 20.2449 146.875 19.0603 146.875 17.8766C146.869 16.1095 145.993 14.0056 141.735 14.0056H139.23C134.989 14.0056 134.098 16.09 134.098 17.8377C134.098 22.2607 134.098 26.6818 134.098 31.1011C134.098 32.8516 134.989 34.9304 139.236 34.9972L141.74 35.0417C145.987 35.128 146.878 33.0575 146.875 31.2876C146.875 30.4323 146.875 29.5779 146.875 28.7245C145.261 28.6948 143.647 28.6688 142.032 28.6466V31.0009C142.032 31.4573 141.854 31.7579 140.972 31.744H140.001C139.122 31.744 138.941 31.4267 138.941 30.9703V18.0631C138.941 17.6067 139.122 17.3033 140.001 17.3033H140.772C142.032 17.3033 142.032 17.8043 142.032 18.0714C142.032 19.1846 142.032 20.2978 142.032 21.4109L146.875 21.4304Z" fill="#6A0A1E"/>
<path d="M157.545 32.1308C157.545 26.09 157.537 20.0482 157.522 14.0056H152.672L152.697 35.3033C156.092 35.4202 159.487 35.5594 162.882 35.7208C162.882 34.5909 162.882 33.461 162.882 32.3312C161.103 32.2588 159.324 32.192 157.545 32.1308Z" fill="#6A0A1E"/>
<path d="M178.455 17.5343C178.455 16.3562 178.455 15.18 178.455 14.0056H167.88C167.88 21.3172 167.89 28.6289 167.908 35.9406C171.433 36.1261 174.958 36.3451 178.483 36.5974C178.483 35.423 178.483 34.2467 178.483 33.0686C176.571 32.9573 174.656 32.8516 172.739 32.7514C172.739 30.8284 172.739 28.9026 172.739 26.9796C174.441 27.0389 176.14 27.103 177.838 27.1716C177.838 25.6985 177.838 24.2254 177.838 22.7523L172.709 22.6326C172.709 20.9165 172.709 19.2004 172.709 17.4842C174.625 17.4991 176.541 17.5158 178.455 17.5343Z" fill="#6A0A1E"/>
<path d="M196.311 22.1095V18.4304C196.311 16.4072 195.42 13.9972 191.176 14.0056H188.75C184.508 14.0056 183.621 16.3071 183.621 18.2301C183.621 19.7328 183.621 21.2347 183.621 22.7356C183.601 23.2772 183.696 23.8167 183.899 24.3191C184.108 24.7758 184.444 25.1623 184.867 25.4323C185.451 25.7895 186.061 26.1039 186.69 26.3729C187.915 26.9499 189.137 27.5353 190.358 28.129C190.703 28.3015 191.036 28.4967 191.354 28.7134C191.413 28.7551 191.474 28.9026 191.474 29.1865V33.0297C191.474 33.5418 191.293 33.8646 190.417 33.8034C190.188 33.7867 189.957 33.7727 189.729 33.7533C188.468 33.6642 188.468 33.116 188.468 32.821C188.468 31.9527 188.468 31.0844 188.468 30.2134C186.856 30.1206 185.245 30.0278 183.635 29.9351V32.4063C183.635 35.3479 185.413 37.0316 188.763 37.3182C189.559 37.3822 190.353 37.4518 191.148 37.5213C195.415 37.9054 196.311 35.6234 196.311 33.6252V28.7301C196.311 27.8034 196.194 27.1883 195.949 26.7987C195.705 26.4246 195.383 26.1075 195.006 25.8692C194.431 25.5211 193.839 25.2043 193.23 24.9202C192.011 24.3636 190.791 23.8071 189.571 23.2505C189.229 23.0865 188.898 22.9006 188.58 22.6939C188.527 22.6521 188.466 22.5102 188.466 22.2291C188.466 20.9963 188.466 19.7579 188.466 18.5223C188.466 18.0687 188.61 17.6484 189.646 17.6623H190.255C191.329 17.6763 191.477 18.1048 191.477 18.564V21.962L196.311 22.1095Z" fill="#6A0A1E"/>
</svg>
