<svg width="36" height="36" viewBox="0 0 36 36" fill="none" xmlns="http://www.w3.org/2000/svg">
<path fill-rule="evenodd" clip-rule="evenodd" d="M18 0C8.05887 0 0 8.05887 0 18C0 27.9411 8.05887 36 18 36C27.9411 36 36 27.9411 36 18C36 8.05887 27.9411 0 18 0ZM17.4987 15.2535L17.4609 14.6306C17.3476 13.0163 18.3422 11.5419 19.9161 10.9699C20.4952 10.7665 21.4773 10.7411 22.1194 10.919C22.3712 10.9953 22.8497 11.2495 23.1896 11.4783L23.8066 11.8978L24.4865 11.6817C24.8642 11.5673 25.3678 11.3766 25.5944 11.2495C25.8085 11.1351 25.9973 11.0716 25.9973 11.1097C25.9973 11.3258 25.5315 12.063 25.1412 12.4698C24.6124 13.0418 24.7635 13.0926 25.8337 12.7113C26.4758 12.4952 26.4884 12.4952 26.3625 12.7367C26.2869 12.8638 25.8966 13.3087 25.4811 13.7155C24.7761 14.4146 24.7383 14.4908 24.7383 15.0755C24.7383 15.978 24.3102 17.8593 23.8821 18.8888C23.0889 20.8209 21.3892 22.8166 19.6894 23.8207C17.2972 25.2317 14.1118 25.5876 11.43 24.7613C10.5361 24.4817 9 23.7699 9 23.6428C9 23.6046 9.46585 23.5538 10.0324 23.5411C11.216 23.5157 12.3995 23.1852 13.4067 22.6005L14.0866 22.1937L13.306 21.9268C12.198 21.5455 11.2034 20.6684 10.9515 19.8422C10.876 19.5752 10.9012 19.5625 11.6063 19.5625L12.3365 19.5498L11.7196 19.2575C10.9893 18.8888 10.322 18.266 9.99466 17.6305C9.75544 17.1729 9.45326 16.0162 9.5414 15.9272C9.56658 15.889 9.83098 15.9653 10.1332 16.067C11.0019 16.3848 11.1152 16.3085 10.6116 15.7746C9.6673 14.8086 9.37772 13.3723 9.83098 12.0122L10.045 11.402L10.876 12.2283C12.5757 13.8934 14.5776 14.8849 16.8691 15.1772L17.4987 15.2535Z" fill="#1F4653"/>
</svg>
